<svg width="1110" height="104" viewBox="0 0 1110 104" fill="none" xmlns="http://www.w3.org/2000/svg">
<g clip-path="url(#clip0_0_1)">
<path d="M43.1643 72.8354C45.1767 69.9603 47.7186 67.5963 50.7054 67.1065C53.5651 66.6167 56.785 67.9797 59.3058 69.0658C64.5168 71.3872 67.44 72.7928 71.719 76.3495C75.0871 79.1607 78.7518 81.8654 81.3361 85.486C83.5815 88.5741 84.4077 92.4927 87.2886 95.091C90.8897 98.3282 91.0168 99.031 86.992 101.693C74.3669 110.127 65.5759 112.64 50.3877 109.999C43.4185 108.764 38.5887 107.443 37.4025 100.138C36.4704 94.3669 37.1059 87.1684 38.8641 81.6312C39.7538 79.0116 41.1731 75.668 43.1643 72.8354Z" fill="#FFC40C"/>
<path d="M51.701 82.7386C49.9005 85.9758 48.5871 89.6815 48.5871 92.2159C48.5447 97.8383 57.6323 99.2866 61.7841 99.1162C67.4824 98.8819 73.5196 98.3282 79.1754 97.5828C77.1419 99.031 74.9176 100.202 72.5663 101.118C67.5036 103.12 62.2078 104.653 56.912 105.378C51.1714 106.166 43.9692 107.124 40.9824 100.543C38.8641 95.8151 39.3301 91.0658 39.669 86.0823C40.0292 81.1626 44.0116 75.9661 47.8669 73.1123C48.8201 72.3882 50.0276 72.0048 51.3833 71.7919C58.3737 70.7696 62.6103 74.7096 67.1858 79.3524C68.7322 80.9497 70.0032 82.8664 71.719 84.272C73.5619 85.8054 76.4428 87.5518 78.7094 89.4898C75.0024 88.4889 71.1259 85.6138 67.9696 83.5479C65.3641 81.8442 62.7162 80.0339 59.7506 79.0329C55.5987 77.606 53.7981 79.0755 51.701 82.7386Z" fill="#FFFA50"/>
<path d="M78.4129 89.2982C80.7854 90.6399 84.0264 93.0678 83.0096 95.4957C82.0563 97.7319 77.5232 98.9032 75.4684 99.2866C72.291 99.8829 69.0923 100.075 65.9149 100.458C63.3305 100.777 61.2334 101.523 58.6067 101.033C53.6499 100.117 49.5192 99.2014 48.8625 93.7493C48.0152 86.8277 53.9464 74.0281 62.8433 77.606C66.0208 78.8839 67.1223 81.4821 69.3465 83.6544C71.5072 85.7842 74.261 87.2537 76.9724 88.5102C77.3537 88.7232 77.8621 88.9787 78.4129 89.2982Z" fill="#FFE62E"/>
<path d="M50.7054 67.1065C53.5651 66.6167 56.785 67.9797 59.3058 69.0658C64.5168 71.3872 67.44 72.7928 71.719 76.3495C75.0871 79.1607 78.7518 81.8654 81.3361 85.486C82.4165 86.9768 83.1791 88.6805 84.0052 90.3417C83.3909 89.4898 82.7766 88.6593 82.0564 87.9777C79.472 85.4008 76.8453 82.6534 73.7738 80.6728C73.7314 80.6515 73.689 80.6302 73.6679 80.6089C68.478 75.9448 61.8689 72.0048 56.785 72.516C48.227 73.3892 41.8297 82.0145 41.2154 90.3843C40.3046 102.396 49.5827 107.017 60.4285 106.315C69.8337 105.718 82.0352 104.27 89.5552 97.9448C89.6611 97.9022 89.7246 97.8809 89.8094 97.8383C90.4237 99.0949 89.5552 99.9894 86.992 101.693C74.3669 110.127 65.5759 112.64 50.3877 109.999C43.4185 108.764 38.5887 107.443 37.4025 100.138C36.4704 94.3669 37.1059 87.1684 38.8641 81.6312C39.7114 79.0116 41.1519 75.668 43.1219 72.8354C45.1978 69.9603 47.7186 67.5963 50.7054 67.1065Z" fill="#EF9818"/>
<path d="M45.219 83.7822C46.3841 80.9923 48.2694 78.5857 50.7266 76.456C53.1838 74.2836 55.4928 74.5392 52.9508 77.6273C48.8413 82.6747 46.7654 85.486 46.9772 92.1307C46.9984 93.8558 48.4812 98.4347 47.3373 99.3291C43.9057 97.9235 43.6515 92.5992 43.8845 89.4898C44.0328 87.424 44.4776 85.5286 45.219 83.7822Z" fill="white"/>
<path d="M79.6203 93.4085C79.5779 93.0252 79.4932 92.6418 79.3661 92.365C78.9425 91.4918 77.9045 90.7464 77.1207 90.2139C76.4005 89.7241 75.4684 89.4046 75.0659 88.5954C75.9556 88.1268 77.9892 89.5111 78.7094 89.9797C79.7262 90.6399 80.7642 91.3853 81.5268 92.365C82.0987 93.0891 82.48 93.9409 82.2894 94.878C82.0987 95.7512 81.548 96.5392 80.5947 96.0068C79.7898 95.5808 79.7686 94.4095 79.6203 93.4085Z" fill="white"/>
</g>
<g clip-path="url(#clip1_0_1)" filter="url(#filter0_f_0_1)">
<path d="M974.506 84.0221C972.787 85.2256 970.875 86.0336 969.097 85.6977C967.39 85.3879 965.86 83.9634 964.667 82.8375C962.214 80.4673 960.859 79.0796 959.183 76.2061C957.866 73.9378 956.361 71.6686 955.65 69.1059C955.02 66.9117 955.357 64.5412 954.271 62.4922C952.91 59.9369 952.982 59.5161 955.788 58.8439C964.606 56.6889 970.059 57.0756 978.051 61.6664C981.713 63.7861 984.156 65.516 983.328 69.8625C982.671 73.2955 980.842 77.2095 978.721 79.9605C977.685 81.2501 976.204 82.8382 974.506 84.0221Z" fill="#FFC40C"/>
<path d="M971.736 76.7121C973.409 75.2619 974.905 73.4487 975.424 72.025C976.598 68.875 971.789 66.2023 969.422 65.4486C966.173 64.4145 962.668 63.4904 959.338 62.7521C960.776 62.3546 962.266 62.1515 963.774 62.1181C967.028 62.0292 970.316 62.2512 973.44 62.9278C976.826 63.6596 981.068 64.5946 981.4 68.9027C981.622 71.9922 980.389 74.5649 979.179 77.2952C977.97 79.9853 974.67 82.0899 971.92 82.9044C971.237 83.1162 970.48 83.0845 969.675 82.9268C965.538 82.071 963.964 78.9908 962.344 75.4465C961.802 74.2328 961.48 72.896 960.804 71.7553C960.082 70.5168 958.821 68.9464 957.944 67.3939C959.822 68.7146 961.411 71.1229 962.762 72.9292C963.877 74.4194 964.994 75.978 966.455 77.1471C968.496 78.7981 969.808 78.3409 971.736 76.7121Z" fill="#FFFA50"/>
<path d="M958.071 67.5623C957.013 66.3231 955.689 64.2961 956.757 63.1402C957.75 62.079 960.536 62.3483 961.769 62.5534C963.676 62.8684 965.512 63.4151 967.376 63.8498C968.893 64.1991 970.223 64.2093 971.599 65.0219C974.196 66.5505 976.329 67.91 975.583 71.1072C974.643 75.169 968.692 81.1462 964.426 77.316C962.902 75.9481 962.815 74.2631 962.01 72.5877C961.232 70.9492 959.985 69.5603 958.719 68.2996C958.549 68.102 958.315 67.8544 958.071 67.5623Z" fill="#FFE62E"/>
<path d="M969.097 85.6977C967.39 85.3879 965.86 83.9634 964.667 82.8375C962.214 80.4673 960.859 79.0796 959.183 76.2061C957.866 73.9378 956.361 71.6686 955.65 69.1059C955.348 68.0474 955.268 66.9342 955.143 65.832C955.314 66.4362 955.489 67.0285 955.755 67.5587C956.679 69.5351 957.593 71.6159 958.913 73.357C958.933 73.3776 958.952 73.3983 958.96 73.4146C960.921 77.0965 963.828 80.6621 966.788 81.415C971.775 82.6753 977.133 79.1385 979.191 74.5621C982.16 68.0005 977.893 63.5061 971.656 61.6821C966.251 60.0929 959.1 58.4103 953.581 60.4253C953.513 60.4275 953.473 60.4265 953.416 60.4331C953.328 59.6015 953.999 59.2767 955.788 58.8439C964.606 56.6889 970.059 57.0756 978.051 61.6664C981.713 63.7861 984.156 65.516 983.328 69.8625C982.671 73.2955 980.842 77.2095 978.721 79.9605C977.709 81.2588 976.216 82.8425 974.53 84.0308C972.775 85.2213 970.875 86.0336 969.097 85.6977Z" fill="#EF9818"/>
<path d="M975.591 77.452C974.365 78.7809 972.814 79.7472 970.998 80.4409C969.173 81.1586 967.928 80.5427 969.988 79.3279C973.329 77.333 975.07 76.1784 976.311 72.4022C976.652 71.4288 976.756 68.5531 977.581 68.2846C979.221 69.7763 978.275 72.8194 977.508 74.5185C977.002 75.6487 976.364 76.6225 975.591 77.452Z" fill="white"/>
<path d="M958.234 65.0061C958.179 65.2301 958.148 65.4628 958.163 65.6444C958.223 66.2216 958.653 66.8527 958.985 67.3122C959.289 67.7347 959.747 68.1048 959.808 68.6418C959.212 68.723 958.353 67.5293 958.044 67.1187C957.608 66.5398 957.177 65.9087 956.949 65.2023C956.776 64.6785 956.736 64.122 957.035 63.6345C957.321 63.183 957.791 62.853 958.218 63.3471C958.583 63.7511 958.355 64.4135 958.234 65.0061Z" fill="white"/>
</g>
<g clip-path="url(#clip2_0_1)">
<path d="M110.42 47.82C113.34 45.42 117.27 44.71 121.01 44.19C122.29 44.01 123.61 43.85 124.86 44.19C126.85 44.72 128.54 46.48 130.6 46.32C131.17 46.28 131.77 46.08 132.3 46.29C132.99 46.56 133.28 47.43 133.14 48.16C133 48.89 132.54 49.51 132.09 50.1C126.74 57.08 120.82 64.46 112.37 66.89C110.18 67.52 107.59 67.77 105.47 66.76C102.75 65.47 102.73 63.38 103.31 60.73C104.35 55.87 106.5 51.05 110.42 47.82Z" fill="#D5D458"/>
<path opacity="0.62" d="M105.82 66.91C108.59 66.53 111.12 65.22 113.49 63.81C115.44 62.65 117.53 61.45 119.31 60.05C120.51 59.11 121.21 57.69 121.88 56.32C122.34 55.38 122.8 54.44 123.26 53.49C123.52 52.96 123.78 52.42 123.85 51.83C122.65 52.27 121.45 52.71 120.26 53.15C121.22 52.8 122.36 51.35 123.14 50.67C123.54 50.33 124.98 49.48 124.48 48.74C124.28 48.44 123.89 48.34 123.53 48.29C122.4 48.12 121.22 48.24 120.14 48.63C120.89 47.76 122.07 47.4 123.2 47.2C123.5 47.15 123.83 47.09 124.04 46.86C123.71 46.56 123.22 46.51 122.77 46.49C120.34 46.38 117.89 46.64 115.54 47.25C116.34 46.85 117.14 46.46 117.99 46.19C118.54 46.02 119.11 45.9 119.67 45.78C120.88 45.53 122.09 45.28 123.31 45.03C122.36 44.47 120.76 44.49 119.71 44.68C118.9 44.83 118 44.66 117.21 44.83C118.46 44.56 119.74 44.36 121 44.19C122.28 44.01 123.6 43.85 124.85 44.19C126.84 44.72 128.53 46.48 130.59 46.32C131.16 46.28 131.76 46.08 132.29 46.29C132.98 46.56 133.27 47.43 133.13 48.16C133 48.89 132.54 49.51 132.09 50.1C126.74 57.08 120.82 64.46 112.37 66.89C110.3 67.48 107.87 67.73 105.82 66.91Z" fill="#BFB939"/>
<path opacity="0.62" d="M129.05 50.36C128.13 48.82 128.65 47.53 128.99 46.08C129.51 46.26 130.04 46.36 130.6 46.32C131.17 46.28 131.77 46.08 132.3 46.29C132.99 46.56 133.28 47.43 133.14 48.16C133 48.89 132.54 49.51 132.09 50.1C131.59 50.76 131.07 51.42 130.56 52.08C130.01 51.55 129.45 51.04 129.05 50.36Z" fill="#FFEC9C"/>
<path opacity="0.68" d="M128.98 50.61C129 50.5 129.01 50.39 129.01 50.27C130.06 50.72 131.19 49.89 131.44 48.83C131.61 48.12 131.85 47.39 131.47 46.76C131.49 46.62 131.17 46.39 131.14 46.25C131.54 46.19 131.94 46.15 132.31 46.29C133 46.56 133.29 47.43 133.15 48.16C133 48.89 132.54 49.51 132.09 50.1C131.52 50.84 130.95 51.59 130.36 52.33C129.55 51.91 128.84 51.32 128.98 50.61Z" fill="#E8B769"/>
<path opacity="0.44" d="M111.76 49.76C113.47 48.58 115.37 47.65 117.39 47.18C119.95 46.58 122.72 46.74 125.09 47.88C126.39 48.5 127.63 49.56 127.83 50.98C128.18 53.54 126.61 55.24 125.17 57.05C123.43 59.25 121.17 61.01 118.71 62.36C115.58 64.07 112.13 65.13 108.65 65.93C107.34 66.23 105.72 66.4 104.88 65.34C104.3 64.61 104.35 63.57 104.49 62.65C105.23 57.68 107.58 52.65 111.76 49.76Z" fill="#E5DF6E"/>
<path opacity="0.65" d="M130.37 52.07C130.4 52.03 130.42 52 130.45 51.97C131.06 51.11 131.96 49.53 132.17 48.49C132.4 47.36 132.23 46.53 131.34 46.23C131.67 46.19 132 46.17 132.3 46.29C132.99 46.56 133.28 47.43 133.14 48.16C133 48.89 132.54 49.51 132.09 50.1C131.55 50.8 131 51.51 130.45 52.21C130.42 52.16 130.4 52.11 130.37 52.07Z" fill="#A57329"/>
<path d="M108.87 63.87C108.71 63.94 108.55 64.01 108.39 64.09C107.62 64.45 106.44 65.05 105.58 64.73C104.57 64.35 104.96 62.09 105.14 61.18C105.67 58.41 107.45 56.3 109.24 54.53C110.17 53.6 111.33 52.9 112.61 52.82C113.14 52.79 113.68 52.86 114.21 52.8C115.32 52.68 116.3 51.9 117.42 51.87C118.1 51.85 119.06 51.95 119.72 52.14C120.27 52.3 120.81 52.73 120.98 53.34C121.16 53.97 120.92 54.62 120.66 55.17C118.92 58.85 115.83 61.59 112.24 62.64C111.04 62.99 109.98 63.37 108.87 63.87Z" fill="#E5DF6E"/>
<path opacity="0.77" d="M105.46 66.76C104.7 66.4 104.15 65.97 103.77 65.49C104.24 66.08 106.28 65.7 106.9 65.64C108.34 65.49 109.75 65.16 111.12 64.71C116.07 63.09 122.01 60.38 124.18 55.3C123.75 55.53 123.32 55.76 122.89 55.99C123.78 54.47 124.82 53.03 126.01 51.73C126.18 51.55 126.33 51.22 126.12 51.09C126.06 51.05 125.98 51.05 125.91 51.02C125.66 50.91 125.71 50.55 125.67 50.28C125.44 48.78 118.97 50.31 118.09 50.96C119.42 49.97 120.97 49.29 122.6 48.98C123.5 48.81 124.41 48.75 125.3 48.55C125.43 48.52 125.57 48.48 125.66 48.39C125.83 48.2 125.73 47.87 125.53 47.72C125.37 47.61 123.92 47.19 123.8 47.27C124.32 46.94 124.88 46.68 125.46 46.5C125.04 46.45 124.65 46.28 124.33 46C125.07 45.96 125.81 45.82 126.52 45.61C125.57 45.03 124.5 44.65 123.39 44.49C122.91 44.42 122.41 44.51 121.95 44.45C121.65 44.41 121.32 44.17 121.01 44.21C122.29 44.03 123.61 43.87 124.86 44.21C126.44 44.63 127.83 45.82 129.37 46.22C128.88 46.91 128.62 47.79 128.6 48.62C128.57 50.01 129.54 51.57 131.05 51.45C125.97 58.01 120.27 64.63 112.36 66.9C110.18 67.52 107.59 67.76 105.46 66.76Z" fill="#B9BC37"/>
<path opacity="0.68" d="M105.46 66.76C105.15 66.61 104.89 66.45 104.65 66.29C110.46 68.43 116.69 65.01 121.15 61.27C122.48 60.16 123.77 58.98 124.95 57.71C126.51 56.03 127.55 54.14 128.77 52.23C127.29 52.15 125.96 53.09 124.78 53.98C125.43 53.01 126.56 52.49 127.38 51.67C127.58 51.47 127.78 51.17 127.66 50.91C127.47 50.5 126.72 50.61 126.6 50.18C126.86 49.96 127.12 49.74 127.38 49.52C127.25 49.37 127.07 49.27 126.88 49.25C127.07 48.7 127.93 48.52 127.95 47.94C127.96 47.56 127.59 47.29 127.23 47.17C126.87 47.05 126.47 46.98 126.22 46.71C126.85 46.6 127.49 46.59 128.12 46.7C127.8 46.65 127.27 45.27 126.84 45.04C127.69 45.49 128.52 45.98 129.39 46.2C128.9 46.89 128.64 47.77 128.62 48.6C128.59 49.99 129.56 51.55 131.07 51.43C125.99 57.99 120.29 64.61 112.38 66.88C110.18 67.52 107.59 67.76 105.46 66.76Z" fill="#A29720"/>
<path opacity="0.75" d="M105.46 66.76C105.15 66.61 104.89 66.45 104.65 66.29C110.46 68.43 116.69 65.01 121.15 61.27C123.63 59.19 125.77 57.38 127.41 54.55C127.95 53.63 128.48 52.71 129.02 51.79C129.06 51.72 129.11 51.64 129.12 51.55C129.15 51.34 128.94 51.15 128.73 51.11C128.52 51.07 128.3 51.14 128.1 51.21C128.32 51.06 128.55 50.9 128.68 50.67C128.81 50.44 128.81 50.11 128.6 49.94C128.44 49.81 128.22 49.81 128.02 49.81C127.33 49.82 126.64 49.82 125.95 49.83C126.75 49.5 127.55 49.17 128.35 48.84C128.11 48.61 128.15 48.22 128.15 47.89C128.15 47.55 128 47.13 127.67 47.12C127.97 47.01 128.26 46.9 128.56 46.79C128.42 46.46 128.27 46.16 128.24 45.81C128.34 45.85 129.31 46.29 129.36 46.21C128.87 46.9 128.61 47.78 128.59 48.61C128.56 50 129.53 51.56 131.04 51.44C125.96 58 120.26 64.62 112.35 66.89C110.18 67.52 107.59 67.76 105.46 66.76Z" fill="#8A720B"/>
<path opacity="0.42" d="M130.95 47.71C131.09 47.71 131.23 47.71 131.35 47.77C131.47 47.82 131.58 47.95 131.57 48.08C131.57 48.16 131.53 48.23 131.49 48.29C131.16 48.84 130.76 49.35 130.3 49.79C130.06 50.02 129.73 50.24 129.43 50.11C129.19 50.01 129.09 49.72 129.05 49.46C129 49.2 129 48.92 129 48.65C129 48.11 129 47.31 129.5 46.94C130.17 46.45 130.98 46.9 130.95 47.71Z" fill="#FFF69E"/>
<path d="M130.35 47.26C130.46 47.24 130.62 47.25 130.64 47.36C130.66 47.44 130.58 47.52 130.59 47.6C130.6 47.72 130.78 47.78 130.79 47.9C130.8 47.96 130.75 48.02 130.71 48.07C130.42 48.42 130.11 48.75 129.78 49.07C129.62 49.23 129.38 49.38 129.2 49.25C129.12 49.19 129.08 49.08 129.06 48.97C128.89 47.98 129.41 47.42 130.35 47.26Z" fill="#FBEF95"/>
<path opacity="0.34" d="M107.28 54.73C108.28 53.31 109.55 52.05 111.13 51.32C109.28 53.05 107.69 55.05 106.38 57.21C106.21 57.5 106.04 57.78 105.88 58.07C105.74 58.33 105.52 58.54 105.39 58.79C104.97 59.62 104.64 60.49 104.4 61.39C104.35 61.58 104.3 61.77 104.19 61.92C104.28 61.79 104.22 61.24 104.25 61.06C104.3 60.73 104.38 60.4 104.48 60.08C104.68 59.49 105.05 59 105.28 58.44C105.81 57.15 106.47 55.89 107.28 54.73Z" fill="#BFB939"/>
<path opacity="0.34" d="M111.25 48.35C112.56 47.22 114.11 46.31 115.81 45.98C113.6 47.21 111.57 48.75 109.77 50.53C109.53 50.77 109.3 51 109.07 51.25C108.87 51.46 108.6 51.61 108.42 51.82C107.81 52.52 107.28 53.29 106.82 54.1C106.73 54.27 106.63 54.44 106.49 54.56C106.61 54.46 106.69 53.91 106.75 53.74C106.88 53.43 107.03 53.13 107.21 52.85C107.55 52.33 108.03 51.95 108.39 51.45C109.24 50.33 110.18 49.27 111.25 48.35Z" fill="#BFB939"/>
<path opacity="0.34" d="M106.17 59.34C106.97 58.32 107.98 57.42 109.19 56.92C107.74 58.15 106.46 59.58 105.4 61.15C105.27 61.35 105.13 61.56 105 61.77C104.88 61.96 104.71 62.11 104.61 62.29C104.27 62.89 103.99 63.53 103.78 64.18C103.74 64.32 103.69 64.45 103.6 64.57C103.67 64.48 103.64 64.07 103.67 63.94C103.72 63.7 103.79 63.46 103.88 63.23C104.05 62.8 104.35 62.45 104.54 62.04C104.98 61.08 105.52 60.17 106.17 59.34Z" fill="#BFB939"/>
<path opacity="0.34" d="M119.91 58.35C119 59.4 117.88 60.31 116.56 60.77C118.18 59.53 119.62 58.06 120.84 56.44C121 56.23 121.16 56.01 121.31 55.79C121.44 55.59 121.64 55.44 121.76 55.26C122.16 54.63 122.49 53.96 122.76 53.27C122.81 53.13 122.87 52.98 122.97 52.86C122.88 52.96 122.89 53.4 122.86 53.54C122.8 53.8 122.71 54.05 122.6 54.3C122.4 54.76 122.06 55.11 121.83 55.55C121.28 56.54 120.65 57.49 119.91 58.35Z" fill="#BFB939"/>
</g>
<path d="M64.7203 40.8521C64.685 42.3986 64.6901 43.903 64.5839 45.4493C64.5035 46.649 65.0746 47.7181 64.9262 48.8994C64.734 50.4244 63.9021 50.2836 62.3866 50.5443C60.5673 50.8608 58.7444 51.0834 56.9367 51.398C54.5033 51.8212 51.8788 51.6914 49.4998 51.0078C44.8165 49.6637 40.7551 46.9306 37.3974 43.4149C31.1301 36.847 27.4083 27.0159 27.0582 17.9829C26.9768 15.9775 26.75 13.0869 25.5168 11.4005C24.6482 10.2091 22.5637 8.87493 25.2152 8.95305C26.7817 9.00274 27.9164 9.8376 29.2903 10.3676C30.6824 10.9004 32.1839 10.9136 33.6756 11.011C35.0879 11.0919 36.4883 11.3164 37.886 11.4883C46.9817 12.5623 53.9822 20.0723 58.9872 27.113C61.9326 31.2454 64.8266 35.6047 64.7203 40.8521Z" fill="#78AF02"/>
<path opacity="0.42" d="M58.7388 51.1198C58.1391 51.2065 57.5347 51.2998 56.9436 51.4028C54.5102 51.826 51.8857 51.6963 49.5067 51.0126C44.8234 49.6685 40.7619 46.9354 37.4043 43.4197C31.1303 36.8471 27.4085 27.016 27.0584 17.983C26.977 15.9775 26.7502 13.0869 25.517 11.4005C24.6484 10.2091 22.5639 8.87496 25.2154 8.95309C26.4075 8.98752 27.3573 9.48678 28.3425 9.95069C30.0392 11.6554 30.8507 13.9011 32.4022 15.8362C33.04 16.6287 33.722 17.3313 34.2936 18.1878C34.4348 18.4008 35.5597 20.9727 35.4286 20.9293C33.7369 20.3335 32.6202 19.1769 31.4752 17.8479C30.4906 16.705 29.1342 14.484 27.5798 14.149C26.0429 17.3351 30.8492 20.1466 32.4477 22.0445C30.8539 21.3972 29.8522 19.8263 28.3285 19.0671C28.8539 20.002 28.3813 21.4373 28.8489 22.5234C29.3317 23.6306 30.1643 24.279 31.2952 24.6954C33.0757 25.3651 34.755 25.9217 36.5307 26.2026C38.4155 26.5011 40.4577 25.8883 42.0816 27.1859C40.8191 28.5207 37.3458 27.3556 35.8911 26.9806C35.0594 26.7689 28.7776 24.7133 28.8376 24.4319C27.7246 29.768 35.4299 32.0443 39.1549 32.0819C40.396 32.0906 41.6411 31.9806 42.8813 31.9481C43.522 31.9314 45.6929 32.3541 46.1647 32.0641C42.6182 34.2639 37.6394 33.5291 33.9569 32.1327C33.1016 31.8128 32.2474 31.3923 31.378 31.3462C29.6603 35.2645 35.3393 36.3093 37.8161 36.546C39.8487 36.7375 41.9262 37.3467 43.9757 37.2463C45.4458 37.176 46.8229 36.3596 48.2693 36.1811C46.6191 37.491 44.0326 37.9158 41.9726 37.9884C39.5008 38.0697 36.9431 36.8015 34.4926 37.1921C33.869 38.8942 37.5231 41.3755 38.7551 41.9759C41.1425 43.1422 44.4686 43.0151 47.0665 43.0548C48.5335 43.0736 49.9552 42.421 51.3247 41.9541C52.1413 41.6783 54.5873 41.5482 55.1429 41.0851C53.8696 42.1383 51.89 42.6641 50.2938 43.0089C49.2734 43.2296 48.2444 43.434 47.2052 43.5397C46.2809 43.6266 44.9516 43.2605 44.1026 43.4825C41.7723 44.1014 43.1999 45.7854 44.7388 46.1701C48.1459 47.0037 51.3634 47.042 54.7615 46.419C53.0706 46.7262 51.7004 47.4766 49.8032 47.5343C47.9109 47.5854 46.1333 46.8974 44.1932 47.2691C44.2973 49.4125 51.6024 50.0428 53.0902 50.188C54.8173 50.353 56.4947 50.1071 58.1334 49.59C58.9911 49.3134 60.4921 48.3526 61.5929 48.1187C61.9014 48.0563 62.1715 48.0473 62.3858 48.1302C62.6001 48.2131 59.7379 50.5897 59.3726 50.7737C59.1607 50.8852 58.944 51.0035 58.7388 51.1198Z" fill="#A3CE24"/>
<path opacity="0.42" d="M49.5067 51.0126C44.8234 49.6685 40.7619 46.9354 37.4043 43.4197C31.1303 36.847 27.4085 27.016 27.0584 17.9829C26.977 15.9775 26.7502 13.0869 25.517 11.4005C24.6484 10.2091 22.5639 8.87494 25.2154 8.95307C26.7159 8.9959 27.8162 9.76556 29.1126 10.2905C30.2299 11.1637 31.1517 12.1397 31.6262 13.5553C31.6614 13.6616 31.6984 13.7795 31.7288 13.8926C32.4058 16.3256 30.5973 15.7371 29.1049 16.3187C26.7461 17.2314 29.4067 19.4862 30.7416 20.2823C31.8528 20.938 34.0848 21.0496 34.7111 22.2395C32.9354 23.5405 30.6487 21.9091 28.8421 21.3321C28.1843 24.9465 34.0014 25.8978 36.6389 25.7834C39.8118 25.6579 37.5276 27.3848 35.8237 27.9361C34.7254 28.2936 33.7877 28.3708 32.6359 28.2944C31.8125 28.2407 30.6105 27.895 29.8956 28.1423C31.6614 29.7648 33.5481 30.8658 35.9942 31.5266C37.2622 31.8792 39.0223 32.2807 40.383 32.3347C41.5885 32.3788 42.9726 31.8209 44.0589 32.4689C43.7959 33.9229 40.0814 34.3086 38.914 34.3528C36.105 34.4658 34.0484 33.9122 31.4294 33.0968C31.4459 34.2038 32.9406 35.4695 33.8116 36.0643C35.0736 36.9196 36.6986 36.9302 38.167 37.1731C39.8853 37.4635 41.6944 37.7685 43.4281 37.6136C44.4807 37.5175 46.9886 36.3264 47.8148 36.8283C47.2475 38.226 44.6625 39.1995 43.3446 39.6934C40.9983 40.5745 38.1421 40.4002 35.8269 39.4581C35.8515 40.3985 38.03 41.6582 38.8103 42.0967C42.8385 44.3394 47.4889 43.3986 51.7238 42.0479C52.7617 41.7181 53.9682 40.9415 53.3714 42.6628C53.0416 43.6024 52.1622 44.1777 51.2439 44.5529C48.4832 45.7146 45.3654 44.8453 42.5149 45.1009C43.8991 45.7295 45.5941 46.4901 47.1279 46.6278C49.6969 47.5695 52.8003 46.015 55.2478 46.8999C53.7146 48.1316 51.8897 48.4136 49.9634 48.2577C48.6957 48.1589 47.0528 47.2127 45.8052 47.5239C44.528 47.834 44.7475 48.5594 45.7667 49.2302C47.4829 50.371 50.0544 49.8542 51.9821 50.2342C52.8541 50.4039 53.2214 50.1605 52.8635 51.2523C52.8279 51.3585 52.7692 51.4685 52.6971 51.5689C51.6162 51.4926 50.5412 51.3091 49.5067 51.0126Z" fill="#A3CE24"/>
<path opacity="0.42" d="M46.9452 46.5575C47.0083 46.5825 47.0696 46.5961 47.1327 46.6211C47.1739 46.6202 47.2237 46.6357 47.2648 46.6348C47.1567 46.5876 47.0524 46.5635 46.9452 46.5575Z" fill="#A3CE24"/>
<path d="M56.9436 51.4028C54.5102 51.826 51.8857 51.6963 49.5067 51.0126C49.0924 50.8977 48.6838 50.7464 48.2839 50.6114C48.7806 50.7246 49.2639 50.8282 49.6919 50.8819C51.9176 51.1716 55.2693 51.1642 57.1791 49.8176C57.6175 49.5036 57.9603 49.1108 58.2027 48.646C59.0262 47.0468 56.7905 46.5167 55.6827 46.4212C53.877 46.2809 52.0082 46.9066 50.2284 47.1398C48.0722 47.4172 44.4218 47.0073 42.1174 45.5558C45.7445 46.9022 54.5775 47.7066 55.7183 43.151C55.7715 42.9357 55.7099 42.6684 55.4726 42.5893C53.1395 41.8981 50.9912 42.8707 48.6435 43.1323C46.4011 43.3884 40.0442 42.7087 39.0705 42.2429C42.5217 42.6619 46.7561 42.3148 49.5665 40.773C51.2493 39.8414 50.061 37.7817 48.6728 37.2718C46.7611 36.5586 44.6204 37.5772 42.6058 37.4594C40.3127 37.3343 38.0667 37.101 35.827 36.6188C35.2345 36.4977 34.6691 36.2541 34.0846 36.0372C32.9967 35.6315 31.914 35.0773 31.4196 33.972C32.9914 35.4553 35.2211 35.6971 37.244 35.9021C39.4518 36.118 41.6547 36.3406 43.658 35.1321C44.3514 34.7171 46.4649 33.4964 45.7464 32.3925C45.1215 31.4267 42.2468 31.7866 41.2709 31.8466C39.135 31.9966 37.2627 31.6666 35.1837 31.2997C33.3296 30.9725 31.9454 30.3439 30.5725 28.9933C32.9824 30.3684 35.7318 30.7197 38.4596 30.5078C39.7593 30.4066 42.658 29.6177 41.4723 27.6814C40.4927 26.0655 37.7805 26.5523 36.233 26.5467C33.9146 26.5555 31.4328 25.2099 29.4752 24.1088C30.7665 24.3158 31.9726 24.9383 33.2998 24.9682C33.9921 24.9785 35.4217 25.0212 35.9828 24.6634C37.2267 23.8629 35.7875 23.4381 35.0632 23.1616C33.0052 22.3839 31.4199 21.3574 29.7542 19.9486C28.3971 18.802 27.6668 17.4462 27.1489 15.7663C27.7938 17.6084 29.2981 18.4652 30.8173 19.4848C31.9436 20.2325 33.3696 21.3678 34.8031 20.5716C35.1224 20.3952 35.1942 20.041 35.5123 19.9652C36.0795 19.8248 36.5514 20.3258 36.9663 20.6237C37.3544 20.9023 37.7688 21.0172 38.1694 21.2643C39.1763 21.8958 39.1072 23.1645 39.623 24.1128C40.1932 25.1407 41.1393 25.9416 41.9446 26.7834C42.9505 27.8401 43.9467 28.9102 44.9411 29.9688C46.8944 32.0505 48.8401 34.1571 50.8049 36.2369C53.4241 39.0298 55.9847 41.8618 58.4436 44.7931C60.1825 46.8628 61.4227 48.0168 63.947 48.7946C64.1776 48.8689 64.5174 48.9607 64.904 49.0861C64.6672 50.3764 63.843 50.2816 62.4079 50.5291C60.5742 50.8656 58.7513 51.0882 56.9436 51.4028Z" fill="#6D9E02"/>
<path d="M57.9435 46.4926C56.2983 45.2812 54.8117 43.8489 53.2645 42.5151C49.8595 39.5738 46.1453 36.583 43.3489 33.0341C40.4714 29.3865 37.5993 25.8441 34.9942 21.9864C32.5589 18.3724 30.012 14.2218 26.8177 11.2695C26.1422 10.6426 25.1333 10.0704 24.3078 9.68062C24.2179 9.63636 24.1116 9.60068 23.9939 9.56688C23.8043 9.16711 24.0347 8.91676 25.2269 8.95119C26.7934 9.00088 27.9281 9.83574 29.302 10.3657C30.694 10.8986 32.1956 10.9117 33.6873 11.0091C35.0996 11.09 36.5 11.3146 37.8977 11.4864C46.9934 12.5605 53.9939 20.0704 58.9989 27.1112C61.9395 31.2503 64.8335 35.6095 64.7205 40.8521C64.6852 42.3986 64.6903 43.903 64.5841 45.4493C64.5037 46.649 65.0748 47.7181 64.9264 48.8994C64.8474 49.5322 64.655 49.8708 64.3462 50.075C62.1027 49.1743 60.0322 48.0327 57.9435 46.4926Z" fill="#61A304"/>
<path opacity="0.6" d="M26.8062 11.2714C26.1307 10.6445 25.1217 10.0723 24.2963 9.68251C24.2063 9.63825 24.1001 9.60256 23.9824 9.56877C23.7928 9.16899 24.0232 8.91865 25.2154 8.95308C25.3274 8.95239 25.4366 8.96989 25.539 8.98258C25.4976 9.0543 25.4697 9.13563 25.4733 9.22949C25.4913 9.69876 26.33 10.169 26.6713 10.414C27.2353 10.8291 27.6066 11.3289 28.0363 11.8604C29.565 13.7285 30.8693 15.7397 32.4047 17.6126C33.2029 18.5913 35.0354 22.3811 36.3747 22.5212C37.5868 22.6409 37.007 21.2309 36.7372 20.3071C36.4266 19.2425 35.841 18.6598 35.3663 17.7106C34.8622 16.6896 34.5718 15.5685 33.9258 14.618C33.149 13.4823 32.2843 12.6385 31.3885 11.6404C32.9863 12.2399 34.1891 14.6042 35.062 16.0015C36.2946 17.9714 37.2111 19.9577 37.7832 22.1836C38.2577 23.9946 38.5893 25.5104 39.8893 26.9202C40.1051 27.1563 40.4426 27.7738 40.7993 27.5735C41.2846 27.2932 40.9951 26.2132 41.0565 25.7604C41.2071 24.8444 41.4303 24.0108 41.468 23.0542C41.5352 21.3786 41.3362 19.664 41.2914 17.989C41.2479 16.5381 40.8391 14.8757 40.1105 13.6023C41.8023 16.571 42.6553 19.4651 42.3665 22.9185C42.271 24.0262 42.3726 25.1842 42.2226 26.2832C42.0647 27.4071 41.9289 28.5568 42.4406 29.6239C42.9228 30.619 43.8247 31.5098 44.5609 32.3629C45.5694 33.5431 46.0551 33.0502 46.4097 31.7228C47.0232 29.4557 46.7721 27.1357 47.2045 24.8806C47.5982 22.8208 46.9028 20.4558 46.6884 18.3954C46.5249 16.7163 46.038 15.2615 45.3642 13.926C45.4158 13.9529 45.4675 13.9798 45.5191 14.0068C45.5774 14.0385 45.6358 14.0703 45.696 14.1135C47.9133 16.7599 48.0778 20.4576 48.5131 23.8629C48.5142 24.2287 48.5104 24.6012 48.5066 24.9737C48.44 27.2278 48.3378 29.5172 48.4493 31.7774C48.525 33.3529 48.319 35.01 49.777 36.0161C50.322 36.387 51.156 36.7931 51.7126 36.3003C51.9698 36.0692 52.1587 35.566 52.2724 35.2521C53.3366 32.3148 53.0726 28.9817 53.236 25.9148C53.3392 23.9912 53.361 22.0397 53.2316 20.1012C53.2517 20.1156 53.2669 20.1367 53.2822 20.1578C53.2889 20.1626 53.2956 20.1674 53.2975 20.1789C54.4832 22.1151 54.4249 24.4563 54.5021 26.6514C54.5406 27.7843 54.6717 29.0142 54.557 30.1487C54.4568 31.1923 54.4026 32.2283 54.314 33.2699C54.183 34.8085 53.9871 36.2397 54.016 37.7815C54.0466 39.8012 54.6135 43.0373 57.0899 43.4157C58.7067 43.6638 59.5563 40.7853 59.9697 39.6726C60.9171 37.1381 60.7781 33.9556 60.6859 31.2731C60.6634 30.6688 60.6294 30.0664 60.5839 29.4659C60.7575 29.7325 60.9379 30.0039 61.1048 30.2658C61.517 30.9064 61.4853 32.1513 61.6444 32.9043C61.8641 33.9544 61.4994 35.1122 61.4412 36.1961C61.3241 38.3227 61.1741 41.0036 60.3172 42.9743C59.9445 43.8324 58.9358 46.8196 60.9573 46.405C63.0296 45.9761 64.2297 43.0755 64.6751 41.0426C64.6466 42.523 64.6441 43.9814 64.5467 45.4732C64.4663 46.6729 65.0374 47.742 64.889 48.9233C64.81 49.5561 64.6176 49.8946 64.3088 50.0988C62.3361 49.3012 60.5027 48.3096 58.6719 47.046C56.9533 45.7108 55.2731 44.3221 53.6284 42.898C53.4908 42.779 53.3532 42.6599 53.2156 42.5408C53.0292 42.3766 52.8381 42.2191 52.6518 42.0549C52.0373 41.5124 51.4114 40.9718 50.8017 40.4226C48.5685 38.4341 46.2013 36.4203 44.211 34.1499C43.8987 33.7939 43.5912 33.4312 43.3 33.0599C40.4225 29.4122 37.5504 25.8699 34.9453 22.0122C33.5406 19.9289 32.1279 17.6167 30.4925 15.5301C29.3806 13.9713 28.1554 12.5138 26.8062 11.2714Z" fill="#468E02"/>
<path opacity="0.31" d="M61.4275 44.3798C60.6653 43.5487 61.7875 39.9939 61.9583 39.0213C62.6453 35.2251 62.5131 32.0474 59.7124 29.0836C58.8565 28.1853 58.1129 27.6109 57.5187 28.9894C56.7754 30.7171 57.1872 34.7343 57.3082 36.5856C57.3664 37.4792 57.9807 42.5139 55.8833 41.4239C54.7604 40.8409 54.964 37.8029 54.8831 36.7714C54.703 34.3807 54.6501 32.0814 55.0168 29.6777C55.2415 28.2064 56.1629 25.6939 55.6799 24.2621C55.0894 22.4996 51.0645 20.097 50.9898 23.3086C50.9308 25.6087 50.9828 27.8668 50.8117 30.1676C50.7572 30.9498 50.7064 35.7808 49.528 34.8233C48.7117 34.1664 48.9494 31.2644 48.8483 30.2893C48.5986 27.798 48.3704 25.0788 48.5094 22.5826C48.5955 21.0219 48.9377 18.4688 47.0904 17.6801C45.6937 17.0831 45.387 18.4144 45.1681 19.4538C44.6228 22.0639 45.732 25.943 44.1771 28.2644C42.924 30.123 42.7413 27.6088 42.5909 26.4057C42.3738 24.6882 42.4201 22.9569 42.3954 21.2255C42.3643 19.8139 42.5 15.8957 40.2148 16.0703C39.9243 17.393 41.1633 21.4869 39.2859 22.0962C38.1762 22.4556 38.1364 19.8412 37.9272 19.2144C37.3074 17.3092 35.5549 13.3233 33.3466 12.9245C32.0959 14.9775 36.2235 17.2511 35.1641 19.3908C33.534 18.6668 32.5572 17.1035 31.5022 15.7479C30.537 14.5074 29.1696 13.2622 27.7721 12.2285C27.4521 11.8973 27.1339 11.5777 26.7995 11.2666C26.124 10.6397 25.1151 10.0675 24.2896 9.67772C24.1997 9.63345 24.0934 9.59777 23.9757 9.56397C23.7861 9.1642 24.0165 8.91385 25.2087 8.94829C26.7752 8.99798 27.9099 9.83284 29.2838 10.3628C30.6759 10.8957 32.1774 10.9088 33.6691 11.0062C35.0814 11.0871 36.4818 11.3117 37.8795 11.4835C46.9752 12.5576 53.9757 20.0675 58.9807 27.1083C61.4526 30.5864 63.885 34.2187 64.531 38.404C64.4004 38.939 64.0288 39.372 63.1828 39.5758C63.6488 40.5087 62.6482 45.7023 61.4275 44.3798Z" fill="#A3CE24"/>
<path d="M30.3485 15.2644C30.2502 15.133 30.1518 15.0016 30.0487 14.8769C31.7186 16.1669 33.2439 18.6613 34.4409 20.271C35.4327 21.6016 36.2849 24.0589 37.6059 25.058C37.9187 23.6194 37.0356 21.2616 36.4403 19.9013C37.5994 21.352 38.0722 23.0806 38.4999 24.858C38.9086 26.5205 39.3562 28.3831 41.0628 29.1418C42.2195 27.9542 41.6055 25.6171 41.9949 24.1424C42.5746 26.4143 41.9856 29.6927 42.2382 30.5839C42.5943 31.8535 46.0481 34.7691 47.4023 35.1429C47.6301 34.3735 47.1939 33.3708 47.1585 32.5443C47.1193 31.6948 47.2727 30.8314 47.1646 29.9932C47.8669 31.8258 47.8631 33.4557 48.212 35.3287C48.5779 37.3051 50.1956 38.7808 51.6838 39.9708C53.564 37.7613 52.5086 34.1744 53.8512 31.7817C54.5374 33.1565 53.8129 35.3946 53.7117 36.8634C53.6093 38.4327 53.4984 39.9856 54.1431 41.5031C54.6421 42.6725 55.6689 44.1803 57.092 44.1473C58.5811 44.1212 59.975 41.8971 60.4835 40.6802C60.3998 42.4353 58.2881 44.5294 59.1524 46.3059C59.8395 47.7219 61.2295 47.9187 62.5508 47.194C63.7417 46.538 64.1344 45.2989 64.6141 44.1221C64.5987 44.5674 64.5899 45.0174 64.5582 45.4713C64.4778 46.671 65.0489 47.7401 64.9005 48.9214C64.8214 49.5542 64.6291 49.8927 64.3203 50.0969C62.9924 49.5594 61.7251 48.9234 60.4838 48.1946C57.375 45.5471 54.0368 43.1202 50.8628 40.507C48.1764 38.2033 45.473 35.7962 43.3163 33.0513C40.4388 29.4036 37.5667 25.8613 34.9616 22.0036C33.5655 19.9366 32.1296 17.6991 30.5632 15.6011C30.5127 15.4736 30.4297 15.3633 30.3485 15.2644Z" fill="#4A8209"/>
<path opacity="0.24" d="M34.8688 38.4762C35.7516 40.1139 36.8205 41.662 38.2373 43.0645C42.3214 47.122 51.3305 51.6222 56.9868 48.1078C56.2282 46.1841 51.2252 44.7626 49.4687 43.6638C44.9803 40.8474 41.3771 36.699 38.2174 32.4838C35.2239 28.4892 33.8186 21.4062 28.697 19.5142C26.8823 21.9432 29.2344 25.5178 30.2682 27.6797C31.9737 31.3074 33.0296 35.0771 34.8688 38.4762Z" fill="#CCEA86"/>
<path opacity="0.2" d="M48.1797 18.7054C48.0676 18.7061 47.9767 18.6915 47.8858 18.6769C47.8695 18.6855 47.858 18.6874 47.8417 18.696C47.9642 18.7231 48.0714 18.7291 48.1797 18.7054Z" fill="#CCEA86"/>
<path opacity="0.2" d="M52.9319 21.691C52.1409 21.2956 51.2751 21.3433 50.7476 20.4677C50.4147 19.9144 50.5993 19.2053 50.0393 18.7424C49.4591 18.2651 48.4506 18.3421 47.8857 18.6769C47.1076 18.5037 47.1911 17.6104 46.6206 17.1197C46.1724 16.727 45.371 16.6992 44.8758 16.3437C43.7898 15.554 43.6398 13.8137 42.5727 13.1389C41.4224 12.4246 40.1875 13.4243 39.122 13.2983C38.1704 13.183 37.7274 12.2464 36.8104 12.0546C35.6915 11.8192 35.0974 12.8022 34.1661 12.6305C32.7121 12.3675 31.5501 11.726 30.0314 11.6803C29.1179 11.6532 28.3448 11.7979 27.582 12.0412C27.326 11.7763 27.0699 11.5114 26.7995 11.2666C26.124 10.6397 25.1151 10.0675 24.2896 9.6777C24.1997 9.63344 24.0935 9.59775 23.9757 9.56396C23.7861 9.16418 24.0166 8.91383 25.2087 8.94827C26.7752 8.99796 27.9099 9.83282 29.2838 10.3628C30.6759 10.8956 32.1774 10.9088 33.6691 11.0062C35.0814 11.0871 36.4818 11.3116 37.8795 11.4835C46.9752 12.5575 53.9757 20.0675 58.9807 27.1082C59.1401 27.3241 59.288 27.5418 59.4426 27.7644C58.1718 26.1727 56.6468 24.7939 55.1274 23.4496C54.4336 22.8198 53.7545 22.099 52.9319 21.691Z" fill="#CCEA86"/>
<path opacity="0.25" d="M36.864 39.4826C37.5133 40.2732 38.2665 40.8343 38.9543 41.5713C39.6706 42.3391 39.7971 43.5048 40.6441 44.1331C41.3352 44.6394 42.3761 44.6869 43.1482 44.9674C44.236 45.3732 45.2247 46.0018 46.3259 46.4171C47.3774 46.817 48.4155 47.2073 49.4959 47.4962C50.1008 47.6566 51.233 48.2971 51.8355 48.2631C52.3325 48.2346 52.6103 48.2008 52.6952 47.5316C52.8794 46.1732 50.9546 45.3796 50.0361 45.0345C48.3139 44.3965 46.3653 44.3564 44.8732 43.2143C43.6793 42.3065 42.8723 40.9869 42.0852 39.7526C41.0052 38.0646 39.8737 36.2789 38.6863 34.6558C37.5733 33.1267 36.113 32.3217 35.2294 30.572C34.8339 29.781 34.3888 29.2992 33.9614 28.6375C33.4795 27.8961 30.4492 20.0116 29.3846 21.1132C28.5053 22.0131 30.9475 26.3521 31.3385 27.4036C32.2092 29.7221 33.5013 32.0186 34.0721 34.4159C34.5348 36.3706 35.6007 37.9369 36.864 39.4826Z" fill="#CCEA86"/>
<g clip-path="url(#clip3_0_1)" filter="url(#filter1_f_0_1)">
<path d="M164.043 114.194C162.165 114.172 160.339 114.199 158.46 114.091C157.003 114.01 155.713 114.718 154.277 114.554C152.423 114.342 152.583 113.33 152.246 111.494C151.836 109.29 151.541 107.081 151.134 104.891C150.587 101.943 150.709 98.7551 151.506 95.8579C153.073 90.1545 156.335 85.1869 160.556 81.0629C168.443 73.3651 180.325 68.7122 191.285 68.1631C193.718 68.0367 197.224 67.7217 199.254 66.2016C200.688 65.1309 202.279 62.5824 202.221 65.8019C202.182 67.7041 201.184 69.093 200.56 70.7679C199.932 72.465 199.937 74.2878 199.839 76.0999C199.76 77.8153 199.507 79.5184 199.317 81.2173C198.139 92.273 189.119 100.874 180.641 107.046C175.665 110.678 170.414 114.251 164.043 114.194Z" fill="#78AF02"/>
<path opacity="0.42" d="M151.497 107.074C151.384 106.347 151.262 105.615 151.129 104.899C150.582 101.951 150.703 98.7632 151.5 95.8661C153.067 90.1627 156.329 85.1951 160.551 81.0711C168.443 73.3651 180.325 68.7122 191.285 68.1631C193.718 68.0367 197.224 67.7217 199.254 66.2016C200.688 65.1309 202.279 62.5824 202.221 65.8019C202.195 67.2495 201.602 68.4092 201.053 69.6115C199.007 71.6944 196.292 72.7103 193.964 74.6202C193.011 75.4053 192.168 76.2429 191.136 76.9485C190.879 77.1228 187.773 78.5235 187.824 78.3638C188.524 76.3022 189.912 74.9308 191.51 73.5227C192.883 72.3118 195.561 70.6348 195.946 68.7434C192.058 66.9216 188.711 72.7944 186.429 74.7609C187.193 72.8173 189.086 71.5797 189.987 69.7197C188.859 70.3704 187.11 69.8164 185.798 70.3989C184.461 71.0003 183.685 72.0197 183.195 73.3982C182.407 75.5687 181.754 77.6148 181.438 79.7741C181.101 82.0661 181.873 84.5366 180.32 86.5256C178.683 85.0115 180.049 80.7793 180.485 79.0084C180.73 77.996 183.139 70.3425 183.481 70.4115C176.989 69.1338 174.332 78.5182 174.337 83.0404C174.344 84.5469 174.494 86.0569 174.551 87.5618C174.58 88.3393 174.097 90.9802 174.455 91.549C171.736 87.2743 172.56 81.2206 174.204 76.7314C174.581 75.6887 175.079 74.6461 175.123 73.5902C170.344 71.559 169.153 78.4668 168.9 81.4766C168.695 83.9464 167.985 86.4766 168.135 88.9631C168.24 90.7466 169.25 92.407 169.487 94.1602C167.874 92.1751 167.323 89.0412 167.206 86.5417C167.074 83.5424 168.578 80.4204 168.07 77.4512C165.995 76.7176 163.034 81.1872 162.322 82.6909C160.939 85.605 161.139 89.6406 161.126 92.7946C161.124 94.5757 161.935 96.2924 162.521 97.9484C162.867 98.9358 163.059 101.903 163.628 102.571C162.332 101.04 161.667 98.6443 161.226 96.7115C160.945 95.4759 160.682 94.2297 160.54 92.9696C160.422 91.8488 160.848 90.2303 160.566 89.2028C159.783 86.3826 157.759 88.1386 157.313 90.012C156.348 94.1592 156.345 98.0653 157.148 102.182C156.752 100.133 155.823 98.4803 155.726 96.1782C155.638 93.8819 156.449 91.7146 155.971 89.3648C153.371 89.5206 152.706 98.3966 152.55 100.205C152.374 102.303 152.695 104.336 153.346 106.318C153.693 107.355 154.88 109.164 155.179 110.497C155.259 110.871 155.274 111.199 155.176 111.46C155.078 111.721 152.154 108.279 151.926 107.839C151.787 107.583 151.641 107.321 151.497 107.074Z" fill="#A3CE24"/>
<path opacity="0.42" d="M151.5 95.8661C153.067 90.1627 156.329 85.1951 160.551 81.0711C168.443 73.3651 180.325 68.7122 191.285 68.1631C193.718 68.0368 197.224 67.7218 199.254 66.2016C200.688 65.1309 202.279 62.5824 202.221 65.8019C202.189 67.6239 201.27 68.9702 200.651 70.5509C199.606 71.9192 198.434 73.0516 196.722 73.647C196.594 73.6911 196.451 73.7377 196.314 73.7762C193.37 74.6314 194.06 72.428 193.333 70.6245C192.193 67.7737 189.493 71.0343 188.545 72.6657C187.764 74.0235 187.659 76.7343 186.223 77.5109C184.62 75.3734 186.569 72.5752 187.244 70.3744C182.848 69.6255 181.773 76.6997 181.948 79.8998C182.144 83.7495 180.016 81.0005 179.324 78.9397C178.875 77.6115 178.768 76.4743 178.845 75.0751C178.899 74.0749 179.302 72.6112 178.992 71.7467C177.047 73.9124 175.736 76.2178 174.968 79.1961C174.557 80.7401 174.094 82.8821 174.047 84.5345C174.01 85.9984 174.706 87.6709 173.935 88.9984C172.166 88.6992 171.647 84.1956 171.577 82.7791C171.402 79.371 172.045 76.8669 172.999 73.6766C171.656 73.7119 170.14 75.5436 169.43 76.609C168.409 78.1527 168.418 80.1254 168.144 81.9111C167.815 84.0008 167.469 86.2011 167.681 88.3033C167.812 89.5798 169.293 92.6077 168.695 93.6175C166.99 92.948 165.773 89.8236 165.156 88.2306C164.054 85.3946 164.226 81.9253 165.338 79.102C164.197 79.1448 162.697 81.8064 162.176 82.7597C159.509 87.6801 160.715 93.3122 162.413 98.4342C162.827 99.6895 163.786 101.143 161.689 100.443C160.544 100.055 159.833 98.9955 159.365 97.886C157.917 94.5509 158.93 90.7543 158.58 87.2978C157.836 88.9866 156.936 91.0546 156.79 92.9183C155.682 96.0496 157.612 99.7954 156.571 102.778C155.055 100.934 154.688 98.723 154.851 96.3825C154.953 94.8424 156.079 92.8351 155.684 91.3251C155.29 89.779 154.413 90.0553 153.612 91.3017C152.251 93.4006 152.914 96.5149 152.479 98.8601C152.285 99.9209 152.586 100.363 151.255 99.9441C151.126 99.9022 150.992 99.8325 150.869 99.7464C150.947 98.4333 151.155 97.1259 151.5 95.8661Z" fill="#A3CE24"/>
<path opacity="0.42" d="M156.873 92.6955C156.843 92.7725 156.828 92.847 156.798 92.924C156.8 92.974 156.782 93.0346 156.783 93.0846C156.839 92.9527 156.867 92.8258 156.873 92.6955Z" fill="#A3CE24"/>
<path d="M151.129 104.899C150.582 101.951 150.703 98.7632 151.5 95.8661C151.634 95.3615 151.812 94.8635 151.97 94.3762C151.84 94.9807 151.721 95.5688 151.661 96.089C151.34 98.7947 151.395 102.863 153.056 105.163C153.443 105.691 153.925 106.101 154.492 106.389C156.445 107.367 157.058 104.646 157.158 103.3C157.304 101.106 156.519 98.8461 156.211 96.6889C155.845 94.0753 156.292 89.6386 158.022 86.8215C156.438 91.2427 155.583 101.976 161.128 103.298C161.391 103.36 161.714 103.281 161.807 102.992C162.614 100.151 161.404 97.5562 161.054 94.71C160.712 91.9915 161.45 84.2658 162.002 83.0774C161.541 87.2724 162.02 92.4077 163.93 95.7979C165.084 97.8278 167.568 96.3571 168.168 94.6649C169.008 92.3347 167.742 89.7501 167.857 87.3031C167.977 84.5178 168.23 81.7883 168.784 79.063C168.923 78.3422 169.211 77.6526 169.466 76.94C169.944 75.6139 170.602 74.2921 171.937 73.6768C170.158 75.605 169.895 78.3149 169.674 80.7733C169.442 83.4561 169.202 86.1332 170.697 88.5484C171.21 89.3843 172.721 91.933 174.051 91.0457C175.214 90.2739 174.738 86.7894 174.652 85.6055C174.44 83.015 174.815 80.7378 175.232 78.209C175.604 75.9539 176.348 74.2651 177.968 72.58C176.332 75.5242 175.944 78.8665 176.238 82.1747C176.379 83.751 177.377 87.2587 179.711 85.7928C181.659 84.5815 181.031 81.296 181.016 79.4175C180.973 76.6034 182.573 73.5724 183.882 71.181C183.649 72.7513 182.91 74.2238 182.892 75.8353C182.889 76.6758 182.857 78.4117 183.299 79.0878C184.287 80.5868 184.783 78.8339 185.109 77.951C186.025 75.4422 187.249 73.5038 188.936 71.4624C190.309 69.7994 191.945 68.8943 193.977 68.2425C191.75 69.0506 190.731 70.8884 189.514 72.7465C188.622 74.1239 187.263 75.8706 188.249 77.5997C188.468 77.9849 188.899 78.0671 188.995 78.4522C189.173 79.1388 188.572 79.7184 188.216 80.2262C187.883 80.7011 187.749 81.2057 187.455 81.6954C186.702 82.9263 185.161 82.8599 184.017 83.499C182.777 84.2053 181.818 85.3648 180.807 86.3538C179.538 87.5893 178.253 88.8133 176.982 90.0348C174.482 92.4346 171.951 94.8253 169.454 97.2389C166.1 100.457 162.697 103.604 159.173 106.629C156.684 108.768 155.3 110.289 154.391 113.364C154.304 113.645 154.197 114.059 154.05 114.53C152.481 114.26 152.585 113.258 152.264 111.52C151.831 109.298 151.535 107.089 151.129 104.899Z" fill="#6D9E02"/>
<path d="M157.103 106.045C158.551 104.031 160.269 102.207 161.867 100.311C165.39 96.1372 168.97 91.5876 173.239 88.1444C177.627 84.6013 181.888 81.0663 186.534 77.8511C190.888 74.8454 195.891 71.6967 199.431 67.7787C200.183 66.9501 200.863 65.7176 201.325 64.7102C201.378 64.6004 201.42 64.471 201.459 64.3277C201.942 64.092 202.249 64.3683 202.223 65.8159C202.184 67.7181 201.187 69.1069 200.562 70.7819C199.935 72.479 199.939 74.3018 199.841 76.1138C199.763 77.8293 199.509 79.5323 199.32 81.2313C198.141 92.287 189.121 100.888 180.644 107.06C175.66 110.686 170.408 114.259 164.043 114.194C162.165 114.172 160.339 114.199 158.46 114.092C157.003 114.01 155.713 114.718 154.277 114.554C153.508 114.467 153.094 114.238 152.842 113.866C153.905 111.131 155.262 108.602 157.103 106.045Z" fill="#61A304"/>
<path opacity="0.6" d="M199.429 67.7648C200.18 66.9362 200.861 65.7036 201.323 64.6962C201.375 64.5865 201.417 64.4571 201.456 64.3137C201.939 64.0781 202.246 64.3543 202.221 65.8019C202.223 65.9379 202.203 66.0706 202.189 66.1951C202.102 66.1459 202.003 66.1131 201.889 66.1188C201.319 66.1471 200.76 67.1716 200.467 67.5893C199.971 68.2796 199.37 68.7372 198.73 69.266C196.484 71.1473 194.06 72.7582 191.808 74.6476C190.631 75.63 186.056 77.9065 185.904 79.5342C185.776 81.0071 187.479 80.2839 188.597 79.9438C189.885 79.5521 190.584 78.8332 191.73 78.244C192.962 77.618 194.319 77.2502 195.464 76.4529C196.832 75.4944 197.844 74.4332 199.044 73.3321C198.338 75.2798 195.484 76.7724 193.8 77.8512C191.426 79.3744 189.027 80.5142 186.333 81.2393C184.142 81.8401 182.306 82.2634 180.613 83.8608C180.329 84.126 179.584 84.5442 179.832 84.9745C180.179 85.5596 181.486 85.1934 182.037 85.2617C183.151 85.4319 184.166 85.6914 185.327 85.724C187.362 85.7825 189.441 85.5175 191.473 85.44C193.234 85.3673 195.246 84.8483 196.782 83.9464C193.202 86.0407 189.7 87.116 185.504 86.8129C184.158 86.7121 182.754 86.8514 181.418 86.6843C180.052 86.5082 178.654 86.3591 177.366 86.9949C176.165 87.5939 175.096 88.7009 174.07 89.6063C172.652 90.8467 173.257 91.4295 174.873 91.8417C177.633 92.5552 180.446 92.2185 183.189 92.7124C185.695 93.162 188.556 92.2855 191.054 91.9969C193.09 91.7753 194.849 91.1643 196.461 90.328C196.429 90.3911 196.397 90.4541 196.365 90.5172C196.328 90.5884 196.29 90.6597 196.238 90.7334C193.056 93.4612 188.57 93.7118 184.442 94.2869C183.998 94.2932 183.546 94.2938 183.094 94.2943C180.357 94.2444 177.577 94.1518 174.834 94.3182C172.923 94.4318 170.909 94.2045 169.708 95.9881C169.265 96.6547 168.783 97.6727 169.389 98.3416C169.673 98.6506 170.287 98.8729 170.669 99.0067C174.249 100.258 178.292 99.8918 182.017 100.048C184.353 100.147 186.722 100.147 189.074 99.9628C189.056 99.9874 189.031 100.006 189.006 100.025C189 100.033 188.994 100.041 188.98 100.044C186.646 101.51 183.803 101.471 181.14 101.595C179.765 101.657 178.274 101.833 176.895 101.71C175.627 101.602 174.369 101.551 173.103 101.458C171.234 101.32 169.494 101.102 167.623 101.158C165.172 101.223 161.251 101.955 160.826 104.967C160.547 106.933 164.053 107.924 165.409 108.411C168.499 109.526 172.36 109.314 175.615 109.165C176.348 109.129 177.079 109.08 177.807 109.016C177.486 109.231 177.159 109.453 176.843 109.659C176.071 110.169 174.56 110.147 173.648 110.351C172.376 110.632 170.966 110.205 169.649 110.149C167.066 110.036 163.81 109.891 161.406 108.878C160.359 108.437 156.719 107.254 157.251 109.702C157.8 112.212 161.337 113.629 163.811 114.141C162.013 114.127 160.243 114.144 158.431 114.046C156.974 113.965 155.684 114.673 154.248 114.509C153.479 114.422 153.065 114.193 152.813 113.821C153.754 111.416 154.932 109.177 156.441 106.937C158.038 104.832 159.701 102.774 161.407 100.758C161.549 100.589 161.692 100.42 161.835 100.252C162.031 100.023 162.22 99.7891 162.417 99.5606C163.067 98.8073 163.715 98.0401 164.373 97.2925C166.756 94.5544 169.168 91.6532 171.896 89.2061C172.324 88.8221 172.76 88.4439 173.207 88.0853C177.595 84.5423 181.856 81.0073 186.503 77.7921C189.012 76.0584 191.799 74.3118 194.31 72.2979C196.187 70.9268 197.939 69.4196 199.429 67.7648Z" fill="#468E02"/>
<path opacity="0.31" d="M159.715 110.245C160.714 109.308 165.044 110.622 166.227 110.816C170.845 111.598 174.7 111.393 178.259 107.953C179.338 106.902 180.025 105.991 178.343 105.289C176.236 104.41 171.365 104.965 169.12 105.138C168.036 105.221 161.933 106.036 163.227 103.475C163.919 102.104 167.61 102.309 168.861 102.197C171.76 101.945 174.551 101.849 177.474 102.261C179.263 102.514 182.325 103.598 184.056 102.992C186.188 102.251 189.049 97.3322 185.149 97.2857C182.357 97.2456 179.616 97.3399 176.821 97.1637C175.871 97.1083 170.006 97.1131 171.152 95.6694C171.938 94.6696 175.464 94.9183 176.646 94.7821C179.667 94.4447 182.965 94.1304 185.997 94.2649C187.892 94.3479 190.996 94.7282 191.928 92.475C192.634 90.7715 191.013 90.4174 189.749 90.166C186.573 89.5399 181.879 90.9397 179.04 89.0841C176.767 87.5885 179.816 87.3322 181.275 87.1332C183.356 86.846 185.459 86.8784 187.56 86.8247C189.273 86.7676 194.031 86.8785 193.788 84.1069C192.178 83.7725 187.226 85.3327 186.46 83.0622C186.009 81.72 189.182 81.6358 189.94 81.3733C192.244 80.5947 197.058 78.4126 197.512 75.7266C195.003 74.2366 192.299 79.2783 189.688 78.0217C190.544 76.0331 192.428 74.8258 194.059 73.5266C195.552 72.338 197.045 70.6611 198.28 68.9504C198.678 68.5574 199.061 68.1668 199.434 67.7566C200.186 66.928 200.867 65.6955 201.328 64.6881C201.381 64.5783 201.423 64.4489 201.462 64.3056C201.945 64.0699 202.252 64.3462 202.227 65.7937C202.188 67.696 201.19 69.0848 200.566 70.7598C199.938 72.4569 199.942 74.2796 199.845 76.0917C199.766 77.8072 199.513 79.5102 199.323 81.2092C198.144 92.2648 189.125 100.866 180.647 107.038C176.459 110.086 172.083 113.088 167.012 113.93C166.361 113.779 165.83 113.334 165.571 112.31C164.445 112.888 158.127 111.745 159.715 110.245Z" fill="#A3CE24"/>
<path d="M194.63 72.1195C194.788 71.9983 194.947 71.8772 195.097 71.7503C193.554 73.795 190.547 75.6808 188.609 77.1559C187.008 78.3781 184.037 79.4463 182.842 81.0636C184.592 81.4234 187.442 80.3191 189.085 79.5778C187.34 81.0047 185.249 81.6024 183.097 82.1459C181.085 82.665 178.83 83.2338 177.932 85.3158C179.39 86.7036 182.218 85.9262 184.014 86.3786C181.264 87.1135 177.276 86.4435 176.198 86.7624C174.662 87.2121 171.17 91.4446 170.735 93.0935C171.672 93.3595 172.883 92.8162 173.886 92.7619C174.917 92.7027 175.967 92.877 176.983 92.7342C174.768 93.612 172.789 93.6297 170.521 94.0789C168.126 94.5502 166.357 96.5342 164.933 98.357C167.641 100.609 171.981 99.2786 174.904 100.875C173.244 101.727 170.517 100.879 168.733 100.776C166.827 100.673 164.94 100.56 163.107 101.363C161.694 101.985 159.878 103.252 159.938 104.979C159.99 106.786 162.709 108.448 164.193 109.048C162.061 108.971 159.491 106.436 157.346 107.51C155.637 108.363 155.417 110.053 156.315 111.647C157.127 113.084 158.637 113.544 160.072 114.11C159.531 114.097 158.985 114.093 158.433 114.06C156.976 113.979 155.686 114.687 154.25 114.523C153.481 114.436 153.067 114.207 152.815 113.835C153.449 112.216 154.204 110.669 155.072 109.152C158.243 105.342 161.143 101.256 164.271 97.3678C167.031 94.0753 169.915 90.7607 173.218 88.105C177.606 84.5619 181.866 81.027 186.513 77.8117C189.003 76.0887 191.699 74.315 194.225 72.3847C194.379 72.3217 194.511 72.2194 194.63 72.1195Z" fill="#4A8209"/>
<path opacity="0.24" d="M166.517 77.9254C164.541 79.0196 162.676 80.3383 160.993 82.0774C156.124 87.0907 150.785 98.0883 155.129 104.906C157.454 103.959 159.111 97.8662 160.42 95.7189C163.777 90.232 168.763 85.8012 173.836 81.9079C178.644 78.2192 187.223 76.4162 189.449 70.1733C186.475 68.0039 182.169 70.908 179.559 72.1927C175.179 74.3128 170.617 75.6463 166.517 77.9254Z" fill="#CCEA86"/>
<path opacity="0.2" d="M190.698 93.8113C190.696 93.6753 190.712 93.5647 190.729 93.4541C190.718 93.4345 190.716 93.4205 190.705 93.4009C190.674 93.5499 190.668 93.6802 190.698 93.8113Z" fill="#CCEA86"/>
<path opacity="0.2" d="M187.14 99.6209C187.609 98.6553 187.539 97.605 188.594 96.9526C189.262 96.541 190.125 96.7553 190.679 96.0691C191.25 95.3583 191.143 94.1352 190.729 93.4541C190.929 92.5072 192.014 92.5963 192.602 91.897C193.072 91.3476 193.095 90.3744 193.52 89.7684C194.463 88.4393 196.574 88.2333 197.378 86.9287C198.229 85.5226 196.999 84.0374 197.137 82.7423C197.264 81.5856 198.395 81.0349 198.615 79.9193C198.886 78.5579 197.684 77.8502 197.88 76.7173C198.179 74.9487 198.942 73.5294 198.976 71.6854C198.997 70.5761 198.811 69.6397 198.505 68.717C198.823 68.4026 199.141 68.0882 199.434 67.7566C200.186 66.928 200.867 65.6954 201.328 64.688C201.381 64.5783 201.423 64.4489 201.462 64.3055C201.945 64.0699 202.252 64.3461 202.227 65.7937C202.188 67.6959 201.19 69.0848 200.566 70.7597C199.938 72.4568 199.942 74.2796 199.845 76.0917C199.766 77.8071 199.513 79.5102 199.323 81.2091C198.144 92.2648 189.125 100.866 180.647 107.038C180.387 107.234 180.125 107.417 179.857 107.607C181.771 106.043 183.424 104.173 185.035 102.31C185.79 101.459 186.656 100.625 187.14 99.6209Z" fill="#CCEA86"/>
<path opacity="0.25" d="M165.322 80.3611C164.372 81.1602 163.701 82.0822 162.816 82.9272C161.893 83.8073 160.48 83.9769 159.729 85.0136C159.124 85.8595 159.081 87.1235 158.751 88.0646C158.273 89.3907 157.524 90.5995 157.035 91.9419C156.564 93.2237 156.104 94.4892 155.768 95.8047C155.582 96.541 154.82 97.9243 154.87 98.6551C154.911 99.258 154.956 99.5948 155.769 99.6886C157.421 99.8936 158.358 97.5462 158.764 96.4266C159.515 94.3273 159.537 91.9614 160.903 90.1345C161.988 88.6728 163.579 87.675 165.066 86.7027C167.1 85.3685 169.252 83.9705 171.206 82.5068C173.047 81.1349 174.004 79.3512 176.116 78.2546C177.071 77.7636 177.649 77.2167 178.447 76.6888C179.34 76.0937 188.869 72.307 187.517 71.0299C186.413 69.9749 181.18 72.9989 179.909 73.4881C177.106 74.5768 174.336 76.1768 171.434 76.9026C169.068 77.4911 167.181 78.8065 165.322 80.3611Z" fill="#CCEA86"/>
</g>
<g clip-path="url(#clip4_0_1)" filter="url(#filter2_f_0_1)">
<path d="M1115.16 134.234C1113.72 138.025 1112.41 141.749 1110.79 145.478C1109.54 148.373 1110.02 151.517 1108.62 154.307C1106.8 157.908 1104.87 156.831 1100.89 156.146C1096.12 155.334 1091.42 154.286 1086.67 153.478C1080.29 152.391 1073.91 149.769 1068.63 145.993C1058.23 138.564 1050.59 128.247 1045.37 116.613C1035.64 94.8821 1035.06 67.3167 1042.11 44.6803C1043.67 39.6515 1045.64 32.3072 1044.07 27.0571C1042.97 23.3504 1038.99 18.2249 1045.47 20.7427C1049.3 22.2391 1051.38 25.2977 1054.31 27.8123C1057.28 30.3501 1060.98 31.6991 1064.58 33.2477C1068 34.686 1071.27 36.4689 1074.57 38.1192C1096.12 48.7491 1106.84 73.4514 1113.04 95.2443C1116.69 108.042 1120.03 121.355 1115.16 134.234Z" fill="#78AF02"/>
<path opacity="0.42" d="M1091.37 154.37C1089.81 154.058 1088.24 153.759 1086.69 153.496C1080.3 152.408 1073.93 149.786 1068.64 146.011C1058.25 138.582 1050.6 128.265 1045.38 116.63C1035.64 94.8816 1035.06 67.3162 1042.11 44.6798C1043.67 39.6511 1045.64 32.3067 1044.07 27.0567C1042.97 23.35 1038.99 18.2245 1045.47 20.7423C1048.39 21.8726 1050.3 23.9395 1052.33 25.9501C1055.03 31.6518 1055.07 37.9144 1057.2 44.0585C1058.09 46.5768 1059.16 48.9116 1059.82 51.53C1059.98 52.1801 1060.51 59.5242 1060.22 59.3019C1056.56 56.3459 1054.81 52.5077 1053.15 48.2185C1051.72 44.5302 1050.31 37.8505 1046.76 35.6595C1040.17 42.1881 1049.59 53.352 1051.87 59.4453C1048.5 56.4477 1047.4 51.686 1044.3 48.4734C1044.78 51.2452 1042.35 54.3788 1042.56 57.4736C1042.78 60.6339 1044.27 62.9666 1046.7 64.9874C1050.51 68.2042 1054.18 71.0523 1058.32 73.3038C1062.72 75.6941 1068.3 75.9698 1071.18 80.6012C1066.89 82.7939 1059.32 76.8685 1056.06 74.6661C1054.19 73.4136 1040.46 62.8245 1040.86 62.1815C1033.43 74.3962 1050.48 86.7792 1059.65 90.1381C1062.71 91.2477 1065.89 92.0674 1068.98 93.0744C1070.58 93.595 1075.58 96.5432 1077 96.24C1066.3 98.5685 1054.64 92.3867 1046.76 85.7062C1044.92 84.1654 1043.18 82.377 1041.07 81.5007C1033.39 89.6806 1046.51 97.2427 1052.43 99.9993C1057.29 102.255 1061.89 105.582 1067.04 107.131C1070.74 108.246 1074.86 107.435 1078.59 108.262C1073.36 110.054 1066.59 108.836 1061.44 107.209C1055.26 105.243 1050.05 99.8655 1043.65 98.6826C1040.61 102.343 1047.47 111.681 1049.99 114.245C1054.87 119.222 1063.2 121.824 1069.59 124.2C1073.2 125.532 1077.29 125.166 1081.08 125.212C1083.34 125.246 1089.5 127.069 1091.28 126.411C1087.21 127.899 1081.86 127.463 1077.61 126.916C1074.89 126.566 1072.17 126.17 1069.51 125.52C1067.15 124.924 1064.18 122.854 1061.89 122.658C1055.58 122.145 1057.64 127.559 1061.1 129.86C1068.8 134.907 1076.72 137.823 1085.66 139.263C1081.21 138.539 1077.17 139.193 1072.43 137.672C1067.7 136.139 1063.91 132.88 1058.79 132.098C1057.17 137.488 1074.67 145.451 1078.23 147.114C1082.35 149.036 1086.71 149.899 1091.22 150.058C1093.58 150.126 1098.13 149.067 1101.06 149.454C1101.88 149.57 1102.55 149.785 1103.01 150.177C1103.47 150.57 1094.31 153.936 1093.24 154.07C1092.62 154.16 1091.98 154.262 1091.37 154.37Z" fill="#A3CE24"/>
<path opacity="0.42" d="M1068.64 146.011C1058.25 138.582 1050.6 128.265 1045.38 116.63C1035.64 94.8817 1035.06 67.3162 1042.11 44.6798C1043.67 39.6511 1045.64 32.3067 1044.07 27.0567C1042.97 23.35 1038.99 18.2245 1045.47 20.7423C1049.14 22.1638 1051.19 25.0311 1053.93 27.4654C1055.93 30.6035 1057.35 33.8245 1057.29 37.7397C1057.28 38.0335 1057.27 38.3574 1057.24 38.6635C1056.78 45.2714 1052.83 42.2311 1048.63 42.3602C1042 42.5483 1046.6 50.4549 1049.2 53.5932C1051.37 56.1884 1056.79 58.4212 1057.3 61.9117C1051.77 63.5709 1047.54 57.5331 1043.58 54.5229C1038.79 62.8808 1052.34 70.3327 1058.96 72.3625C1066.91 74.834 1059.75 77.1001 1055.05 76.9691C1052.02 76.8898 1049.64 76.2586 1046.86 75.0597C1044.87 74.205 1042.2 72.2967 1040.22 72.2811C1043.16 77.8403 1046.86 82.216 1052.33 85.9942C1055.15 87.9775 1059.15 90.5134 1062.47 91.8398C1065.41 93.0057 1069.32 92.8402 1071.44 95.3945C1069.51 98.7582 1059.99 96.4548 1057.07 95.5404C1050.02 93.3569 1045.42 90.1853 1039.67 85.8733C1038.74 88.6244 1041.32 93.0636 1042.95 95.2977C1045.32 98.5184 1049.33 99.9693 1052.75 101.857C1056.74 104.082 1060.94 106.422 1065.37 107.559C1068.05 108.244 1075.3 107.499 1076.9 109.464C1074.27 112.422 1067.03 112.562 1063.34 112.627C1056.76 112.748 1049.86 109.813 1044.96 105.454C1044.19 107.8 1048.48 112.824 1050.02 114.592C1058.01 123.668 1070.33 125.42 1081.98 125.794C1084.84 125.889 1088.5 125.027 1085.52 128.758C1083.88 130.792 1081.2 131.443 1078.6 131.565C1070.76 132.017 1063.81 127.134 1056.54 125.267C1059.41 128.034 1062.94 131.401 1066.61 133.086C1072.13 137.666 1081.17 136.544 1086.44 140.878C1081.57 142.578 1076.81 141.675 1072.19 139.601C1069.14 138.245 1065.91 134.466 1062.55 134.141C1059.12 133.788 1059.03 135.774 1060.96 138.325C1064.2 142.65 1071.01 143.627 1075.45 146.257C1077.45 147.441 1078.57 147.161 1076.73 149.546C1076.55 149.778 1076.31 149.998 1076.04 150.183C1073.44 149.047 1070.94 147.65 1068.64 146.011Z" fill="#A3CE24"/>
<path d="M1086.69 153.496C1080.3 152.408 1073.93 149.786 1068.64 146.011C1067.72 145.363 1066.84 144.631 1065.97 143.946C1067.1 144.662 1068.21 145.342 1069.22 145.85C1074.46 148.517 1082.76 151.438 1088.66 149.783C1090.02 149.391 1091.21 148.721 1092.22 147.785C1095.65 144.554 1090.59 141.283 1087.94 140.076C1083.6 138.146 1078.43 138.054 1073.82 137.07C1068.25 135.865 1059.59 131.651 1055.16 126.043C1062.95 132.551 1084.08 142.284 1090.89 132.023C1091.21 131.537 1091.29 130.823 1090.78 130.419C1085.62 126.665 1079.45 127.186 1073.42 125.774C1067.65 124.441 1052.53 117.187 1050.53 115.182C1058.7 119.244 1069.47 122.098 1077.77 120.751C1082.75 119.924 1081.61 113.79 1078.63 111.312C1074.53 107.873 1068.34 108.514 1063.47 106.457C1057.91 104.137 1052.56 101.591 1047.45 98.4354C1046.09 97.6165 1044.91 96.5186 1043.65 95.47C1041.32 93.5132 1039.13 91.1941 1038.87 88.0283C1041.46 93.073 1046.76 95.6257 1051.58 97.906C1056.85 100.375 1062.1 102.857 1068.11 101.626C1070.19 101.208 1076.48 100.044 1075.67 96.6851C1074.98 93.7498 1067.55 92.1191 1065.09 91.4115C1059.68 89.9098 1055.34 87.4524 1050.52 84.7225C1046.23 82.2882 1043.35 79.5207 1041.15 74.9783C1045.9 80.4905 1052.39 83.7695 1059.31 85.6374C1062.62 86.5266 1070.47 87.118 1069.24 81.292C1068.23 76.4386 1061.1 75.2638 1057.28 73.8932C1051.54 71.8824 1046.59 66.3801 1042.72 61.9418C1045.73 63.5858 1048.16 66.1819 1051.42 67.4196C1053.12 68.052 1056.61 69.4109 1058.32 69.0184C1062.09 68.1303 1058.91 65.8184 1057.36 64.4998C1052.95 60.773 1049.93 56.8455 1047.05 51.9026C1044.7 47.8783 1044.09 43.8865 1044.28 39.2797C1044.26 44.3986 1047.23 47.8356 1050.09 51.6881C1052.22 54.5239 1054.75 58.5806 1058.99 57.8693C1059.93 57.7132 1060.42 56.9006 1061.27 56.9921C1062.8 57.1424 1063.52 58.7945 1064.29 59.8946C1065 60.9237 1065.93 61.5711 1066.7 62.5331C1068.64 64.9771 1067.35 68.0526 1067.8 70.849C1068.31 73.89 1069.94 76.6993 1071.19 79.4861C1072.75 82.9802 1074.28 86.499 1075.81 89.9877C1078.81 96.8462 1081.77 103.76 1084.81 110.624C1088.83 119.824 1092.68 129.07 1096.19 138.472C1098.67 145.113 1100.73 149.053 1106.28 153.189C1106.79 153.575 1107.55 154.099 1108.39 154.748C1106.68 157.73 1104.72 156.773 1100.96 156.127C1096.13 155.351 1091.43 154.303 1086.69 153.496Z" fill="#6D9E02"/>
<path d="M1093.46 142.234C1090.46 137.797 1088.04 132.953 1085.38 128.3C1079.55 118.043 1072.99 107.394 1069.19 96.1692C1065.27 84.6292 1061.28 73.3545 1058.22 61.5343C1055.37 50.4652 1052.71 37.9719 1047.4 27.8734C1046.28 25.7313 1044.29 23.4323 1042.59 21.745C1042.41 21.5567 1042.18 21.3754 1041.92 21.1887C1041.8 20.0342 1042.59 19.6173 1045.5 20.7477C1049.33 22.244 1051.41 25.3027 1054.34 27.8173C1057.31 30.355 1061.01 31.704 1064.61 33.2527C1068.03 34.691 1071.3 36.4739 1074.6 38.1242C1096.15 48.7541 1106.87 73.4564 1113.06 95.2492C1116.7 108.059 1120.04 121.372 1115.16 134.233C1113.72 138.025 1112.41 141.748 1110.79 145.478C1109.54 148.373 1110.02 151.516 1108.61 154.306C1107.86 155.801 1107.09 156.47 1106.15 156.704C1101.39 152.51 1097.28 147.873 1093.46 142.234Z" fill="#61A304"/>
<path opacity="0.6" d="M1047.37 27.868C1046.25 25.7259 1044.26 23.4269 1042.56 21.7396C1042.38 21.5513 1042.15 21.37 1041.89 21.1832C1041.77 20.0288 1042.56 19.6119 1045.47 20.7423C1045.75 20.8388 1046.01 20.9778 1046.25 21.099C1046.08 21.24 1045.94 21.4165 1045.87 21.6517C1045.5 22.8275 1047.16 24.7254 1047.79 25.6302C1048.82 27.1507 1049.3 28.7118 1049.9 30.4024C1052.04 36.3607 1053.5 42.4759 1055.65 48.4519C1056.77 51.571 1057.97 62.5459 1061.16 64.0666C1064.05 65.4252 1063.86 61.4313 1064 58.9112C1064.17 56.0071 1063.23 54.0533 1062.89 51.2908C1062.54 48.3248 1062.8 45.2989 1062.04 42.3828C1061.11 38.8944 1059.72 36.0504 1058.38 32.7978C1061.8 35.6805 1062.7 42.5797 1063.63 46.7992C1064.95 52.7493 1065.48 58.4631 1064.94 64.4671C1064.53 69.3599 1064.02 73.3975 1065.99 78.0223C1066.32 78.7951 1066.61 80.6175 1067.67 80.4353C1069.12 80.1676 1069.35 77.2442 1069.9 76.1788C1071.07 74.0463 1072.35 72.1815 1073.29 69.8499C1074.92 65.7666 1075.93 61.3537 1077.29 57.1739C1078.45 53.5493 1078.9 49.0814 1078.22 45.2946C1079.8 54.1167 1079.37 62.0186 1075.63 70.3021C1074.42 72.9567 1073.65 75.9083 1072.32 78.4934C1070.94 81.1332 1069.6 83.8563 1069.93 86.9426C1070.25 89.8254 1071.7 92.8182 1072.77 95.5725C1074.23 99.3742 1075.86 98.5815 1077.9 95.6112C1081.41 90.5448 1082.82 84.5898 1085.86 79.3944C1088.64 74.6476 1089 68.1917 1090.28 62.9106C1091.34 58.6165 1091.42 54.5934 1090.92 50.7011C1091.02 50.813 1091.13 50.9248 1091.23 51.0367C1091.35 51.1663 1091.47 51.2959 1091.58 51.4556C1094.74 59.9414 1091.9 69.2264 1089.99 78.026C1089.67 78.9312 1089.34 79.8487 1089 80.7662C1086.86 86.2798 1084.6 91.8495 1082.9 97.5345C1081.7 101.495 1079.74 105.411 1082.46 109.177C1083.48 110.571 1085.19 112.306 1087 111.576C1087.83 111.23 1088.74 110.152 1089.3 109.476C1094.51 103.148 1096.77 94.677 1099.87 87.2391C1101.81 82.5745 1103.57 77.7694 1104.95 72.864C1104.99 72.9172 1105.01 72.9828 1105.03 73.0483C1105.04 73.0661 1105.05 73.0838 1105.05 73.1139C1106.28 78.9398 1104.09 84.6762 1102.35 90.1699C1101.45 93.0043 1100.7 96.1595 1099.42 98.8633C1098.26 101.355 1097.22 103.869 1096.08 106.366C1094.41 110.054 1092.67 113.42 1091.39 117.257C1089.7 122.277 1088.26 130.773 1094.05 133.88C1097.83 135.911 1102.45 129.54 1104.45 127.152C1109.02 121.717 1111.46 113.729 1113.59 107.017C1114.06 105.503 1114.5 103.984 1114.92 102.46C1115.11 103.271 1115.32 104.1 1115.5 104.894C1115.96 106.839 1114.79 109.888 1114.53 111.889C1114.15 114.678 1112.23 117.22 1111.14 119.848C1108.98 125.003 1106.26 131.498 1102.42 135.618C1100.74 137.413 1095.63 143.913 1100.99 144.66C1106.49 145.417 1112 139.299 1114.88 134.664C1113.51 138.299 1112.23 141.902 1110.68 145.504C1109.43 148.399 1109.9 151.542 1108.5 154.333C1107.75 155.828 1106.98 156.496 1106.04 156.73C1101.86 153.029 1098.2 148.97 1094.78 144.241C1091.7 139.434 1088.76 134.528 1085.95 129.565C1085.71 129.15 1085.48 128.735 1085.24 128.32C1084.92 127.751 1084.59 127.194 1084.27 126.625C1083.23 124.745 1082.16 122.86 1081.13 120.968C1077.35 114.094 1073.27 107.041 1070.34 99.6832C1069.88 98.5293 1069.44 97.3631 1069.04 96.19C1065.13 84.65 1061.13 73.3753 1058.08 61.555C1056.43 55.1737 1054.96 48.2194 1052.75 41.6273C1051.37 36.7991 1049.62 32.122 1047.37 27.868Z" fill="#468E02"/>
<path opacity="0.31" d="M1103.93 140.066C1102.77 137.344 1108.66 129.54 1109.94 127.286C1114.96 118.504 1117.42 110.533 1113.1 100.751C1111.77 97.7796 1110.44 95.7076 1107.76 98.5943C1104.41 102.213 1101.9 112.505 1100.58 117.187C1099.94 119.447 1097.04 132.432 1092.81 127.898C1090.55 125.473 1093.72 118.141 1094.42 115.52C1096.07 109.453 1097.96 103.723 1100.97 98.1022C1102.82 94.6621 1107.3 89.2592 1107.36 85.2962C1107.44 80.4218 1099.6 70.9536 1096.6 78.8273C1094.44 84.4611 1092.59 90.0889 1090.15 95.6263C1089.33 97.5121 1084.96 109.41 1082.89 106.01C1081.45 103.67 1084.58 96.7048 1085.19 94.2057C1086.75 87.8282 1088.57 80.9064 1091.11 74.8578C1092.69 71.0752 1095.77 65.064 1091.9 61.4947C1088.97 58.7943 1087.04 61.8163 1085.59 64.1939C1081.95 70.1679 1081.29 80.7294 1075.41 85.1045C1070.69 88.6002 1072.44 82.2251 1073.12 79.1192C1074.09 74.6832 1075.72 70.4441 1077.18 66.1425C1078.34 62.6258 1082.11 53.059 1076.31 51.4869C1074.43 54.5021 1073.91 65.7083 1068.73 65.5686C1065.67 65.4839 1067.87 58.9863 1067.9 57.2535C1068.04 52.0005 1067.2 40.6108 1062.09 37.6887C1057.2 41.6672 1065.41 50.9065 1060.91 55.2668C1057.52 52.0479 1056.48 47.3271 1055.06 43.0511C1053.76 39.1384 1051.47 34.8613 1048.92 31.0806C1048.42 29.9815 1047.91 28.9124 1047.36 27.8502C1046.24 25.7082 1044.25 23.4092 1042.55 21.7219C1042.37 21.5336 1042.13 21.3523 1041.87 21.1655C1041.75 20.011 1042.54 19.5942 1045.46 20.7246C1049.29 22.2209 1051.36 25.2795 1054.29 27.7941C1057.27 30.3319 1060.97 31.6809 1064.57 33.2295C1067.99 34.6678 1071.26 36.4508 1074.56 38.1011C1096.1 48.7309 1106.82 73.4332 1113.02 95.2261C1116.08 105.991 1118.91 117.103 1116.84 128.015C1116.05 129.223 1114.75 129.968 1112.48 129.73C1112.81 132.445 1105.79 144.406 1103.93 140.066Z" fill="#A3CE24"/>
<path d="M1052.63 40.8445C1052.5 40.4334 1052.37 40.0223 1052.23 39.6235C1055.22 44.2766 1056.81 51.78 1058.36 56.8087C1059.64 60.9674 1059.59 67.789 1061.98 71.4169C1064.02 68.1351 1063.9 61.5323 1063.62 57.6479C1065.22 62.2501 1064.87 66.9379 1064.37 71.7065C1063.92 76.1744 1063.39 81.1712 1066.95 84.5429C1070.85 82.6215 1071.38 76.3059 1073.63 73.0018C1073.08 79.1261 1068.74 86.7138 1068.59 89.1383C1068.35 92.5891 1074.34 102.824 1077.36 104.936C1078.59 103.234 1078.39 100.373 1079.03 98.2984C1079.68 96.1642 1080.82 94.1643 1081.28 91.9976C1081.41 97.1436 1079.97 101.169 1079.19 106.105C1078.37 111.311 1081.07 116.378 1083.71 120.624C1090.29 116.811 1090.83 107.019 1096.24 102.281C1096.74 106.281 1092.98 111.179 1091.44 114.721C1089.82 118.51 1088.18 122.252 1088.44 126.568C1088.65 129.897 1089.87 134.524 1093.41 135.69C1097.12 136.931 1102.51 132.656 1104.84 130.093C1103.09 134.359 1096.04 137.684 1096.61 142.833C1097.07 146.936 1100.34 148.641 1104.24 148.008C1107.76 147.43 1109.81 144.711 1112.03 142.223C1111.6 143.31 1111.19 144.415 1110.71 145.509C1109.46 148.404 1109.93 151.548 1108.53 154.338C1107.78 155.833 1107.01 156.501 1106.07 156.735C1103.25 154.242 1100.68 151.559 1098.25 148.669C1092.89 139.399 1086.76 130.473 1081.21 121.23C1076.59 113.18 1072.01 104.859 1069.09 96.1831C1065.17 84.6431 1061.18 73.3684 1058.12 61.5481C1056.48 55.2146 1054.9 48.4245 1052.86 41.8648C1052.85 41.5055 1052.74 41.1599 1052.63 40.8445Z" fill="#4A8209"/>
<path opacity="0.24" d="M1043.45 102.187C1044.2 107.009 1045.48 111.773 1047.76 116.482C1054.29 130.093 1072.62 149.116 1089.68 145.388C1089.49 139.968 1078.37 132.067 1074.99 127.811C1066.37 116.914 1061.1 103.5 1056.98 90.3095C1053.09 77.8103 1055.82 59.0693 1044.82 49.9019C1038.2 54.3152 1040.88 65.2137 1041.54 71.4643C1042.58 81.9271 1041.88 92.1717 1043.45 102.187Z" fill="#CCEA86"/>
<path opacity="0.2" d="M1093.69 64.9843C1093.41 64.8878 1093.2 64.772 1092.99 64.6562C1092.94 64.6632 1092.91 64.6578 1092.86 64.6647C1093.14 64.8391 1093.4 64.9479 1093.69 64.9843Z" fill="#CCEA86"/>
<path opacity="0.2" d="M1102.82 76.5314C1101.21 74.8603 1099.03 74.2192 1098.49 71.5924C1098.15 69.9327 1099.23 68.3415 1098.25 66.7062C1097.24 65.0176 1094.68 64.3239 1092.99 64.6562C1091.22 63.5457 1092.21 61.4108 1091.23 59.6976C1090.46 58.3338 1088.51 57.5625 1087.59 56.2496C1085.6 53.3452 1086.76 48.9116 1084.71 46.3079C1082.49 43.5338 1078.56 44.9223 1076.04 43.6765C1073.79 42.5572 1073.51 39.8534 1071.42 38.5754C1068.86 37.0126 1066.53 38.9216 1064.37 37.6806C1061.01 35.7557 1058.7 33.1512 1054.99 31.7066C1052.75 30.8387 1050.71 30.5185 1048.62 30.4512C1048.22 29.5719 1047.81 28.6926 1047.36 27.8502C1046.24 25.7082 1044.25 23.4092 1042.55 21.7219C1042.37 21.5336 1042.13 21.3523 1041.87 21.1655C1041.75 20.011 1042.54 19.5942 1045.46 20.7246C1049.29 22.2209 1051.36 25.2795 1054.29 27.7941C1057.27 30.3319 1060.97 31.6809 1064.57 33.2295C1067.99 34.6678 1071.26 36.4508 1074.56 38.1011C1096.1 48.7309 1106.82 73.4332 1113.02 95.2261C1113.23 95.8994 1113.4 96.5673 1113.59 97.2529C1111.84 92.2041 1109.28 87.4587 1106.7 82.8035C1105.54 80.6383 1104.5 78.2611 1102.82 76.5314Z" fill="#CCEA86"/>
<path opacity="0.25" d="M1047.5 106.424C1048.41 108.948 1049.78 110.995 1050.84 113.42C1051.93 115.946 1051.22 118.938 1052.77 121.234C1054.03 123.092 1056.56 124.122 1058.23 125.492C1060.56 127.449 1062.45 129.87 1064.81 131.862C1067.06 133.772 1069.28 135.647 1071.7 137.309C1073.05 138.236 1075.29 140.812 1076.81 141.256C1078.07 141.621 1078.78 141.781 1079.58 140.201C1081.22 137.005 1077.16 133.355 1075.19 131.697C1071.5 128.61 1066.71 126.802 1064.03 122.671C1061.87 119.38 1061.03 115.41 1060.17 111.669C1058.98 106.55 1057.75 101.143 1056.24 96.0898C1054.83 91.3342 1051.92 88.0638 1051.27 82.9639C1050.99 80.6618 1050.31 79.0806 1049.83 77.07C1049.29 74.8148 1048.72 52.6676 1045.12 54.4573C1042.16 55.9111 1044.39 68.7782 1044.43 71.7202C1044.55 78.2149 1045.73 85.0248 1045.04 91.4514C1044.47 96.6888 1045.73 101.495 1047.5 106.424Z" fill="#CCEA86"/>
</g>
<g clip-path="url(#clip5_0_1)">
<path d="M1021.47 37.6068C1020.33 39.383 1018.45 40.0958 1016.42 40.464C1014.09 40.8847 1012.6 40.0444 1011.42 37.9494C1009.72 34.8763 1009.04 30.7806 1008.3 27.3539C1007.73 24.7678 1007.3 21.7084 1007.32 19.094C1007.33 18.0977 1006.98 16.7245 1007.47 15.8024C1009.02 12.8947 1017.32 21.6973 1018.42 22.9003C1022.1 26.9409 1024.72 32.4966 1021.47 37.6068Z" fill="#757575"/>
<path d="M1021.47 37.6068C1022.72 35.6398 1023.09 33.6043 1022.88 31.6167C1022.5 33.407 1021.79 34.2458 1020.47 35.3855C1018.25 37.2942 1015.2 34.9372 1013.99 32.6522C1009.62 24.4021 1008.24 17.1639 1008.32 15.2239C1007.95 15.2629 1007.66 15.4407 1007.46 15.8005C1006.98 16.7245 1007.32 18.0958 1007.31 19.0921C1007.29 21.7064 1007.72 24.7757 1008.29 27.352C1009.04 30.7806 1009.71 34.8744 1011.41 37.9475C1012.59 40.0425 1014.08 40.8828 1016.41 40.4621C1018.45 40.1056 1020.33 39.383 1021.47 37.6068Z" fill="#575959"/>
<path d="M1022.36 35.7945C1019.02 34.5116 1017.12 31.2158 1015.67 27.9885C1015.37 27.2976 1015.04 26.6127 1014.73 25.9297C1014.99 26.5404 1015.24 27.1511 1015.51 27.7539C1016.74 30.4998 1018.38 36.1698 1021.84 36.9559C1022.05 36.5686 1022.21 36.1835 1022.36 35.7945Z" fill="#D1D1D1"/>
<path d="M1013.47 28.5871C1012.61 26.6887 1010.11 19.4047 1009.63 18.0361C1009.53 17.7835 1009.46 17.5446 1009.38 17.2958C1009.75 19.5476 1011.74 26.2632 1012.8 28.7824C1014.59 32.9847 1017.22 36.84 1019.82 39.2422C1020.22 38.9933 1020.57 38.6857 1020.9 38.3213C1017.2 36.3047 1014.99 31.9611 1013.47 28.5871Z" fill="#D1D1D1"/>
<path d="M1008.43 23.7016C1008.91 26.4038 1009.4 29.1276 1010.36 31.7099C1011.66 35.1831 1013.57 38.1336 1016.12 40.4968C1016.23 40.4865 1016.32 40.4743 1016.41 40.4621C1017.4 40.287 1018.35 40.0256 1019.2 39.6C1018.55 39.4422 1017.94 39.1391 1017.43 38.5825C1015.38 36.3072 1013.81 33.4433 1012.59 30.6484C1011.14 27.3289 1009.73 23.8034 1008.81 20.2913C1008.35 18.5617 1008.43 16.8962 1008.54 15.215C1008.31 15.2121 1008.12 15.2464 1007.94 15.3335C1007.51 18.1027 1007.95 20.9699 1008.43 23.7016Z" fill="#959C9C"/>
<path d="M1008.4 20.7717C1008.72 27.7128 1012.17 34.9571 1016.75 40.3958C1017.17 40.3135 1017.55 40.2156 1017.93 40.106C1014.86 37.2138 1012.37 33.7324 1010.81 29.7702C1009.71 26.9885 1008.69 23.6925 1008.37 20.4502C1008.36 20.4895 1008.37 20.5208 1008.36 20.5503C1008.39 20.6266 1008.4 20.6913 1008.4 20.7717Z" fill="#D1D1D1"/>
<path opacity="0.41" d="M1010.03 17.4635C1009.56 16.995 1008.93 15.9035 1010.12 16.2785C1010.89 16.5201 1011.5 17.2096 1012.12 17.6774C1014.47 19.4394 1016.29 21.5785 1018.21 23.7563C1020.25 26.0591 1023.07 29.6272 1022 32.8916C1021.58 34.1546 1020.78 34.3858 1019.85 33.3585C1018.58 31.97 1017.8 30.034 1016.9 28.4025C1015.28 25.4271 1013.9 22.3152 1011.85 19.5908C1011.28 18.8384 1010.68 18.1194 1010.03 17.4635Z" fill="#A5AAAA"/>
<path d="M1014.2 20.937C1015.09 21.9959 1016.08 23.015 1016.78 24.1905C1017.59 25.54 1018.62 26.7805 1019.49 28.1023C1019.85 28.6517 1020.2 29.2188 1020.56 29.7682C1020.73 30.0263 1021.15 30.7598 1021.38 30.1527C1021.51 29.7913 1020.92 28.9723 1020.77 28.6886C1020.41 28.0058 1020.08 27.3209 1019.68 26.6815C1019 25.6119 1018.16 24.6136 1017.39 23.5973C1016.37 22.2567 1015.36 21.0396 1014.12 19.9117C1013.77 19.5897 1012.97 18.505 1012.49 18.6053C1012.59 19.2971 1013.54 20.1046 1013.97 20.6361C1014.04 20.7319 1014.12 20.8295 1014.2 20.937Z" fill="#A5AAAA"/>
</g>
<g clip-path="url(#clip6_0_1)">
<path d="M934.803 33.2111C934.966 32.8433 935.201 32.4432 935.508 32.0107C938.043 28.3423 936.11 25.7866 936.025 21.5519C935.94 14.7438 938.004 9.30228 941.711 3.72136C946.985 -4.20081 955.222 -11.8923 964.974 -13.4083C975.319 -15.009 980.488 -3.34939 979.652 4.86913C978.753 14.3116 973.68 22.9668 966.267 28.7807C962.523 31.6913 958.269 33.9124 953.691 35.1867C949.348 36.4249 944.706 35.1196 940.49 36.3702C937.004 37.3971 933.157 36.7403 934.803 33.2111Z" fill="#FCE1A7"/>
<path d="M949.689 0.0981162C952.782 -2.91059 956.959 -6.12821 961.003 -7.70064C962.983 -8.47628 964.62 -9.53146 966.8 -9.82502C969.129 -10.1335 972.121 -9.85558 973.959 -8.21937C976.423 -6.00545 978.387 -1.8083 977.433 1.48838C977.131 -3.8795 971.141 -6.44333 966.343 -5.59895C963.679 -5.13137 961.164 -3.95057 958.875 -2.51631C955.644 -0.485489 952.379 2.20142 950.015 5.21251C947.483 8.42865 945.801 12.9531 944.424 16.7693C943.029 20.6624 942.403 24.7046 941.278 28.6587C940.937 29.8603 940.285 30.9675 939.576 32.0052C938.833 33.0838 937.579 35.2933 936.353 35.7048C936.238 35.5656 936.275 35.4364 936.334 35.2798C936.746 34.272 937.658 33.3772 938.212 32.4179C939.799 29.6604 939.806 27.0485 939.914 23.9495C939.948 22.8163 939.993 21.6694 940.129 20.551C940.608 16.6617 942.111 12.971 943.587 9.37108C944.921 6.11161 947.027 2.66192 949.689 0.0981162Z" fill="#F2CF91"/>
<path d="M976.453 -8.0296C975.425 -8.86819 974.217 -9.73907 972.15 -10.4234C968.877 -11.4767 967.227 -11.1608 963.803 -10.2657C956.121 -8.2914 949.366 -2.66904 945.01 3.67989C942.421 7.44153 940.974 11.9299 939.964 16.3872C938.359 23.4775 939.77 26.4496 938.217 30.7603C937.689 32.2191 934.983 35.5658 936.621 36.7199C934.86 36.4443 933.806 35.3572 934.814 33.1975C934.977 32.8296 935.212 32.4295 935.519 31.997C938.055 28.3286 936.121 25.7729 936.037 21.5382C935.951 14.7301 938.015 9.28861 941.723 3.70769C946.997 -4.21447 955.234 -11.9059 964.985 -13.422C970.116 -14.1993 973.963 -11.7222 976.453 -8.0296Z" fill="#F2CF91"/>
<path opacity="0.34" d="M942.769 28.6224C943.604 27.0952 944.249 25.4362 944.876 23.6034C947.597 15.7611 951.266 8.10008 956.948 2.05788C960.333 -1.5324 972.366 -8.8131 975.128 -0.892066C976.609 3.36603 975.035 8.93424 973.35 12.9318C970.57 19.5875 964.967 26.4001 958.447 29.664C956.596 30.59 954.569 31.1444 952.552 31.6852C948.838 32.6848 945.15 31.3843 941.656 33.4289C940.744 33.9596 937.034 35.1219 939.239 33.1186C940.779 31.7341 941.881 30.2429 942.769 28.6224Z" fill="#FFF5CA"/>
<path opacity="0.72" d="M975.579 -9.1975C973.783 -10.6622 971.968 -11.8238 969.357 -12.0645C962.661 -12.6997 955.596 -8.62807 950.704 -4.30944C944.661 1.02828 941.556 6.59918 939.485 13.1963C938.4 16.6819 938.146 21.4149 938.435 24.9512C938.822 29.6829 936.381 30.8562 935.463 35.229C935.382 35.6639 935.437 36.0727 935.599 36.433C934.505 35.9274 934.036 34.9074 934.817 33.2223C934.98 32.8545 935.215 32.4543 935.522 32.0219C938.057 28.3534 936.124 25.7977 936.039 21.563C935.954 14.755 938.018 9.31346 941.725 3.73253C947 -4.18963 955.236 -11.8811 964.988 -13.3972C969.547 -14.1172 973.095 -12.2253 975.579 -9.1975Z" fill="#ECBB70"/>
<path d="M939.806 21.3115C939.889 20.5374 939.998 19.7608 940.145 18.9928C940.329 18.0957 940.603 17.2271 940.892 16.3696C942.204 12.4094 943.583 7.752 946.02 4.34451C948.621 0.707128 951.791 -2.5352 955.49 -5.02708C957.11 -6.11829 963.211 -10.4073 969.845 -10.0044C971.627 -9.89403 973.832 -8.84685 975.516 -6.88133C977.217 -4.87978 977.944 -1.9648 978.063 0.659498C978.43 8.85796 975.934 17.2929 970.326 23.4407C967.054 27.0322 962.81 30.0809 958.373 31.9938C954.85 33.514 951.47 34.4675 947.66 34.0456C945.881 33.847 944.114 34.6139 942.412 35.274C940.925 35.8371 939.322 36.4872 937.748 35.9543C939.858 36.082 941.789 34.8342 943.779 34.0449C948.459 32.1704 950.988 34.7795 958.527 31.0494C963.271 28.704 967.167 24.9621 970.4 20.7468C971.884 18.8156 973.335 16.8124 974.338 14.603C976.41 9.96414 976.932 4.78998 976.227 -0.223715C976.049 -1.46129 975.786 -2.67774 975.21 -3.76243C974.22 -5.57148 972.35 -6.77776 970.362 -7.30681C968.748 -7.73527 966.971 -7.79591 965.313 -7.55462C950.999 -5.59431 941.592 9.63354 940.914 23.1715C940.793 25.5312 940.886 28.02 939.864 30.1686C938.943 32.081 937.212 33.5599 936.451 35.5569C936.814 33.9638 937.812 33.0479 938.5 31.6735C938.979 30.7217 939.131 29.3883 939.286 28.3309C939.624 26.0122 939.58 23.6314 939.806 21.3115Z" fill="#ECBB70"/>
<path d="M977 3.50265C977.106 6.47985 976.539 10.0014 975.52 12.7899C973.66 17.8971 970.727 22.3335 966.732 25.9723C963.643 28.7798 957.922 32.4909 953.056 33.2794C950.301 33.7184 947.91 33.4304 945.139 33.8334C944.409 33.9441 943.263 34.3978 942.528 34.5719C942.935 34.3805 943.331 34.2027 943.741 34.0362C948.42 32.1617 950.949 34.7708 958.488 31.0407C963.232 28.6953 967.129 24.9534 970.362 20.7381C971.845 18.8069 973.297 16.8037 974.3 14.5943C976.41 9.96413 976.932 4.78997 976.227 -0.223724C976.138 -0.842514 976.016 -1.42029 975.855 -2.00677C976 -1.8204 976.891 0.977753 977 3.50265Z" fill="#C59C5F"/>
<path d="M973.538 -8.65421C970.596 -9.66525 967.351 -9.71698 964.005 -8.91753C961.162 -8.23123 953.547 -4.01658 946.952 3.76163C943.469 7.86386 940.608 18.369 940.364 20.264C939.753 22.3839 941.049 28.7444 938.059 32.8851C937.563 33.55 937.091 34.2123 936.726 34.9393C936.671 35.0076 936.615 35.076 936.559 35.1443C936.987 33.8085 937.849 32.9187 938.489 31.6872C938.968 30.7353 939.12 29.402 939.274 28.3446C939.624 26.0122 939.58 23.6314 939.806 21.3115C939.889 20.5374 939.998 19.7608 940.145 18.9928C940.329 18.0957 940.603 17.2271 940.892 16.3696C942.204 12.4094 943.583 7.75201 946.02 4.34452C948.621 0.707139 951.791 -2.53519 955.49 -5.02707C957.11 -6.11828 963.211 -10.4073 969.845 -10.0044C970.995 -9.93122 972.311 -9.47289 973.538 -8.65421Z" fill="#C59C5F"/>
<path opacity="0.51" d="M968.695 20.6539C965.554 24.7846 961.5 28.2159 957.122 29.7213C954.864 30.4746 951.168 31.8992 948.784 31.1838C946.097 30.3355 946.47 27.2476 948.254 25.6755C950.708 23.5342 954.091 22.2414 956.658 20.2144C959.346 18.1501 961.777 15.7852 963.8 13.1096C964.377 12.3739 964.927 11.6159 965.422 10.8131C966.746 8.79748 967.891 6.74956 968.938 4.59851C969.611 3.32602 970.464 0.88051 972.173 0.772165C976.259 0.576507 974.642 6.70139 974.107 9.06484C973.325 12.9343 971.376 17.0587 968.695 20.6539Z" fill="#FFF5CA"/>
<path opacity="0.66" d="M963.196 19.1959C965.782 16.1375 968.011 12.7885 970.108 9.37729C970.665 8.4428 971.894 5.25666 973.451 5.86655C974.851 6.41681 973.893 9.18665 973.568 10.1733C971.358 16.9978 966.153 22.4274 960.668 27.0816C959.778 27.836 952.827 31.1807 953.797 27.556C954.099 26.4587 957.693 24.6553 958.615 23.8599C960.275 22.4133 961.783 20.8437 963.196 19.1959Z" fill="#FFFAE6"/>
<path opacity="0.51" d="M949.172 -0.779056C949.263 -0.863564 949.366 -0.961743 949.488 -0.999037C949.61 -1.03633 949.778 -0.990379 949.815 -0.868612C949.853 -0.746844 949.789 -0.639975 949.724 -0.533104C948.802 0.877349 947.62 2.07536 946.629 3.4299C945.429 5.06903 944.55 6.90195 943.721 8.7299C943.303 9.66313 942.895 10.5827 942.463 11.5047C942.277 11.8999 941.616 13.8869 941.025 13.5192C940.569 13.2384 941.136 12.1523 941.249 11.7895C941.546 10.8935 941.881 10.0063 942.256 9.12773C943.029 7.36813 943.959 5.66816 945.026 4.08C946.265 2.33649 947.642 0.704794 949.172 -0.779056Z" fill="#FFFAE6"/>
<path opacity="0.51" d="M957.011 -6.4724C956.845 -6.38042 956.692 -6.27727 956.526 -6.18529C955.488 -5.52907 954.525 -4.76723 953.547 -4.01658C953.372 -3.88609 952.07 -3.24101 952.427 -4.04252C952.466 -4.1469 952.561 -4.20656 952.641 -4.27739C953.466 -4.92489 954.264 -5.59475 955.119 -6.19503C956.267 -6.98796 957.476 -7.68646 958.72 -8.28804C961.208 -9.4912 963.873 -10.3229 966.595 -10.8339C966.952 -10.9073 967.361 -10.9608 967.638 -10.7123C967.619 -10.5222 967.445 -10.3917 967.278 -10.2997C966.588 -9.92935 965.743 -9.84473 964.996 -9.657C964.128 -9.43197 963.252 -9.2815 962.402 -8.99558C961.456 -8.67487 960.517 -8.27959 959.636 -7.81475C958.752 -7.37475 957.865 -6.95961 957.011 -6.4724Z" fill="#FFFAE6"/>
<path opacity="0.51" d="M954.03 33.9602C955.379 33.6494 956.634 33.0341 957.908 32.4797C962.813 30.3567 966.682 27.6846 970.228 23.5886C970.465 23.3264 970.809 23.1288 971.1 22.9113C971.181 22.8404 971.311 22.7646 971.405 22.818C971.539 22.905 971.449 23.1274 971.335 23.2393C969.346 25.5098 967.29 27.6112 964.822 29.3773C962.507 31.0402 959.852 32.6994 957.162 33.6466C955.298 34.4483 953.202 34.9469 951.185 35.2367C949.218 35.5215 947.079 35.2336 945.094 35.2314C944.893 35.2264 944.705 35.2327 944.521 35.1507C944.531 34.9991 944.672 34.9096 944.816 34.845C946.168 34.1949 947.991 34.3388 949.462 34.3547C950.974 34.4042 952.545 34.2971 954.03 33.9602Z" fill="#FFFAE6"/>
</g>
<defs>
<filter id="filter0_f_0_1" x="941" y="47" width="50.7762" height="47.5614" filterUnits="userSpaceOnUse" color-interpolation-filters="sRGB">
<feFlood flood-opacity="0" result="BackgroundImageFix"/>
<feBlend mode="normal" in="SourceGraphic" in2="BackgroundImageFix" result="shape"/>
<feGaussianBlur stdDeviation="3" result="effect1_foregroundBlur_0_1"/>
</filter>
<filter id="filter1_f_0_1" x="138" y="46" width="76.7069" height="84.8445" filterUnits="userSpaceOnUse" color-interpolation-filters="sRGB">
<feFlood flood-opacity="0" result="BackgroundImageFix"/>
<feBlend mode="normal" in="SourceGraphic" in2="BackgroundImageFix" result="shape"/>
<feGaussianBlur stdDeviation="2" result="effect1_foregroundBlur_0_1"/>
</filter>
<filter id="filter2_f_0_1" x="994" y="3" width="156.14" height="174.12" filterUnits="userSpaceOnUse" color-interpolation-filters="sRGB">
<feFlood flood-opacity="0" result="BackgroundImageFix"/>
<feBlend mode="normal" in="SourceGraphic" in2="BackgroundImageFix" result="shape"/>
<feGaussianBlur stdDeviation="2" result="effect1_foregroundBlur_0_1"/>
</filter>
<clipPath id="clip0_0_1">
<rect width="53" height="44" fill="white" transform="translate(37 67)"/>
</clipPath>
<clipPath id="clip1_0_1">
<rect width="31.6874" height="26.3065" fill="white" transform="translate(976.775 88.5614) rotate(-159.99)"/>
</clipPath>
<clipPath id="clip2_0_1">
<rect width="30.18" height="23.44" fill="white" transform="translate(103 44)"/>
</clipPath>
<clipPath id="clip3_0_1">
<rect width="68.86" height="35.64" fill="white" transform="translate(142 106.389) rotate(-54.9747)"/>
</clipPath>
<clipPath id="clip4_0_1">
<rect width="148.781" height="77.0047" fill="white" transform="translate(1082.91 173.12) rotate(-124.797)"/>
</clipPath>
<clipPath id="clip5_0_1">
<rect width="23.69" height="18.67" fill="white" transform="translate(1025.86 18.5767) rotate(101.045)"/>
</clipPath>
<clipPath id="clip6_0_1">
<rect width="61" height="36" fill="white" transform="translate(989.453 1.75385) rotate(129.202)"/>
</clipPath>
</defs>
</svg>
